<?xml version="1.0" encoding="UTF-8"?><svg id="Laag_1" xmlns="http://www.w3.org/2000/svg" viewBox="0 0 90 120"><defs><style>.cls-1{fill:#a67c52;}.cls-1,.cls-2,.cls-3,.cls-4,.cls-5{stroke-width:0px;}.cls-2{fill:#fbae17;}.cls-4{fill:#ff8700;}.cls-5{fill:#fff;}</style></defs><g id="Group_69"><g id="Group_68"><ellipse id="Ellipse_13" class="cls-4" cx="45" cy="60" rx="60.32" ry="32.65" transform="translate(-20.04 97.35) rotate(-83)"/></g></g><path class="cls-1" d="M59.97,25.6l-43.1,2.07c-1.43.07-2.44,1.12-2.23,2.34l10.33,62.31c.23,1.41,1.66,2.35,3.17,2.1l45.22-7.41c1.28-.21,2.08-1.42,1.8-2.69l-12.52-56.8c-.25-1.12-1.44-1.99-2.67-1.93ZM70.27,80.44c.26,1.23-.53,2.38-1.77,2.57l-36.74,5.69c-1.43.22-2.78-.68-3-2.01l-8.52-49.86c-.2-1.19.75-2.22,2.11-2.3l9.86-.59-.11-.58c-.18-.97.57-1.82,1.68-1.88l2.73-.15-.41-2.14c-.18-.96.55-1.78,1.63-1.83l3.25-.16c1.06-.05,2.08.67,2.27,1.62l.42,2.11,2.63-.15c1.05-.06,2.06.66,2.25,1.61l.12.57,9.01-.54c1.2-.07,2.37.77,2.61,1.87l9.98,46.16Z"/><path class="cls-3" d="M59.84,25l-43.08,2.02c-1.85.09-3.15,1.44-2.89,3.02l10.29,62.4c.3,1.82,2.14,3.04,4.1,2.72l45.24-7.47c1.65-.27,2.69-1.84,2.32-3.48l-12.55-56.73c-.32-1.45-1.86-2.56-3.44-2.49ZM75.16,84.33c.28,1.27-.52,2.48-1.8,2.69l-45.22,7.41c-1.51.25-2.93-.7-3.17-2.1L14.65,30.01c-.2-1.22.8-2.27,2.23-2.34l43.1-2.07c1.22-.06,2.42.8,2.67,1.93l12.52,56.8Z"/><path class="cls-5" d="M33.05,61.7c-.27-.3-.22-.73.1-.96.32-.23.8-.17,1.07.13l1.36,1.53,3.35-3.17-.12-.66c-.07-.35-.43-.6-.81-.56l-6.16.63c-.39.04-.66.36-.6.72l1.09,6.09c.06.36.44.62.83.57l6.2-.72c.39-.04.65-.37.58-.73l-.68-3.64-3.72,3.54-2.47-2.78Z"/><path class="cls-5" d="M40.75,72.86l-6.23.81c-.4.05-.67.39-.6.76l1.12,6.29c.07.37.45.63.85.57l6.27-.9c.39-.06.65-.4.58-.77l-1.16-6.2c-.07-.36-.44-.62-.83-.57Z"/><path class="cls-5" d="M30.46,47.34c-.26-.3-.22-.71.1-.92.32-.21.79-.15,1.05.15l1.34,1.5,3.32-2.98-.17-.9c-.06-.34-.42-.59-.8-.56l-6.09.47c-.39.03-.65.33-.59.68l1.05,5.9c.06.35.43.6.82.57l6.13-.55c.38-.03.64-.34.58-.69l-.61-3.26-3.69,3.33-2.43-2.74Z"/><path class="cls-5" d="M57.81,33.02l-9.01.55.14.69c.19.95-.5,1.78-1.56,1.85l-12.57.83c-1.11.07-2.16-.67-2.34-1.65l-.13-.71-9.87.6c-.95.06-1.61.78-1.47,1.61l8.55,49.79c.16.92,1.1,1.55,2.09,1.4l36.72-5.64c.87-.13,1.42-.94,1.24-1.79l-9.96-46.22c-.17-.77-.98-1.36-1.82-1.3ZM43.48,79.52c.14.75-.39,1.46-1.2,1.58l-6.27.91c-.82.12-1.6-.41-1.74-1.18l-1.12-6.3c-.13-.76.42-1.45,1.24-1.56l6.23-.8c.8-.1,1.56.42,1.7,1.16l1.16,6.19ZM44.2,56.21l-4.33,4.12.78,4.16c.14.73-.39,1.4-1.19,1.49l-6.2.73c-.81.1-1.58-.43-1.71-1.17l-1.08-6.1c-.13-.73.42-1.39,1.23-1.47l6.16-.63c.79-.08,1.54.44,1.67,1.16l.03.14,3.56-3.37c.27-.26.73-.25,1.03.01s.32.68.06.94ZM41.51,42.29l-4.29,3.88.71,3.77c.13.71-.4,1.34-1.18,1.41l-6.13.56c-.8.07-1.56-.45-1.69-1.17l-1.05-5.91c-.13-.71.42-1.33,1.22-1.39l6.09-.46c.78-.06,1.52.46,1.65,1.15l.07.39,3.53-3.18c.27-.24.72-.22,1.02.04s.32.67.05.91ZM59.11,76.78l-8.99,1.27c-.2.03-.39-.1-.43-.29s.1-.37.3-.4l8.98-1.25c.19-.03.38.1.42.29s-.09.36-.28.39ZM62.61,72.28l-13.26,1.77c-.2.03-.39-.11-.43-.29s.1-.36.29-.39l13.26-1.76c.19-.03.38.1.41.29s-.08.35-.27.38ZM46.79,62.8c-.04-.18.1-.35.29-.37l8.89-1c.19-.02.38.11.41.29s-.09.35-.28.37l-8.89,1.01c-.2.02-.39-.11-.42-.29ZM59.58,57.83l-13.13,1.4c-.2.02-.39-.11-.42-.29s.1-.35.29-.37l13.12-1.38c.19-.02.37.11.41.29s-.08.34-.27.36ZM43.97,48.32c-.03-.18.1-.34.29-.35l8.79-.76c.19-.02.37.11.41.29s-.09.33-.28.35l-8.8.77c-.2.02-.38-.11-.42-.29ZM56.64,43.82l-12.99,1.05c-.2.02-.38-.12-.42-.29s.1-.33.29-.35l12.98-1.03c.19-.01.37.11.4.29s-.09.33-.27.34Z"/><path class="cls-3" d="M57.68,32.41l-9.01.54-.12-.57c-.19-.95-1.2-1.67-2.25-1.61l-2.63.15-.42-2.11c-.19-.95-1.2-1.67-2.27-1.62l-3.25.16c-1.08.05-1.82.87-1.63,1.83l.41,2.14-2.73.15c-1.1.06-1.86.9-1.68,1.88l.11.58-9.86.59c-1.37.08-2.32,1.11-2.11,2.3l8.52,49.86c.23,1.33,1.58,2.23,3,2.01l36.74-5.69c1.24-.19,2.04-1.35,1.77-2.57l-9.98-46.16c-.24-1.1-1.41-1.94-2.61-1.87ZM69.59,80.54c.18.85-.37,1.66-1.24,1.79l-36.72,5.64c-.99.15-1.93-.48-2.09-1.4l-8.55-49.79c-.14-.83.52-1.55,1.47-1.61l9.87-.6.13.71c.18.98,1.23,1.72,2.34,1.65l12.57-.83c1.06-.07,1.75-.9,1.56-1.85l-.14-.69,9.01-.55c.84-.05,1.65.53,1.82,1.3l9.96,46.22ZM36.82,29.15c-.12-.61.35-1.14,1.04-1.17l3.25-.16c.68-.03,1.33.43,1.45,1.04l.54,2.74,3.33-.19c.67-.04,1.32.42,1.44,1.03l.38,1.88c.12.61-.32,1.14-1,1.19l-12.57.81c-.71.05-1.38-.43-1.5-1.05l-.36-1.93c-.12-.62.37-1.16,1.07-1.2l3.44-.2-.53-2.77Z"/><path class="cls-3" d="M40.62,72.17l-6.23.8c-.82.1-1.37.8-1.24,1.56l1.12,6.3c.14.77.92,1.29,1.74,1.18l6.27-.91c.8-.12,1.34-.82,1.2-1.58l-1.16-6.19c-.14-.74-.9-1.26-1.7-1.16ZM42.74,79.63c.07.37-.19.71-.58.77l-6.27.9c-.4.06-.78-.2-.85-.57l-1.12-6.29c-.07-.37.2-.71.6-.76l6.23-.81c.39-.05.76.2.83.57l1.16,6.2Z"/><path class="cls-3" d="M40.44,41.35l-3.53,3.18-.07-.39c-.13-.7-.87-1.21-1.65-1.15l-6.09.46c-.8.06-1.35.69-1.22,1.39l1.05,5.91c.13.72.89,1.24,1.69,1.17l6.13-.56c.78-.07,1.31-.71,1.18-1.41l-.71-3.77,4.29-3.88c.27-.24.24-.65-.05-.91s-.75-.28-1.02-.04ZM37.2,50.01c.06.34-.19.65-.58.69l-6.13.55c-.39.04-.76-.22-.82-.57l-1.05-5.9c-.06-.34.2-.65.59-.68l6.09-.47c.38-.03.74.22.8.56l.17.9-3.32,2.98-1.34-1.5c-.26-.3-.74-.36-1.05-.15-.32.21-.36.63-.1.92l2.43,2.74,3.69-3.33.61,3.26Z"/><path class="cls-3" d="M43.12,55.26l-3.56,3.37-.03-.14c-.13-.72-.88-1.24-1.67-1.16l-6.16.63c-.81.08-1.36.74-1.23,1.47l1.08,6.1c.13.74.9,1.27,1.71,1.17l6.2-.73c.79-.09,1.32-.76,1.19-1.49l-.78-4.16,4.33-4.12c.27-.26.24-.68-.06-.94s-.76-.27-1.03-.01ZM39.92,64.58c.07.36-.19.68-.58.73l-6.2.72c-.4.05-.77-.21-.83-.57l-1.09-6.09c-.06-.36.2-.68.6-.72l6.16-.63c.38-.04.75.21.81.56l.12.66-3.35,3.17-1.36-1.53c-.27-.3-.75-.36-1.07-.13-.32.23-.37.66-.1.96l2.47,2.78,3.72-3.54.68,3.64Z"/><path class="cls-3" d="M56.51,43.2l-12.98,1.03c-.2.02-.33.17-.29.35s.22.31.42.29l12.99-1.05c.19-.02.31-.17.27-.34s-.22-.3-.4-.29Z"/><path class="cls-3" d="M44.38,48.61l8.8-.77c.19-.02.31-.17.28-.35s-.22-.3-.41-.29l-8.79.76c-.2.02-.33.18-.29.35s.22.31.42.29Z"/><path class="cls-3" d="M59.45,57.18l-13.12,1.38c-.2.02-.33.19-.29.37s.22.31.42.29l13.13-1.4c.19-.02.31-.18.27-.36s-.22-.31-.41-.29Z"/><path class="cls-3" d="M47.21,63.09l8.89-1.01c.19-.02.32-.19.28-.37s-.22-.31-.41-.29l-8.89,1c-.2.02-.33.19-.29.37s.23.32.42.29Z"/><path class="cls-3" d="M62.47,71.61l-13.26,1.76c-.2.03-.33.2-.29.39s.23.32.43.29l13.26-1.77c.19-.03.31-.2.27-.38s-.22-.31-.41-.29Z"/><path class="cls-3" d="M58.97,76.1l-8.98,1.25c-.2.03-.33.21-.3.4s.23.32.43.29l8.99-1.27c.19-.03.32-.2.28-.39s-.23-.32-.42-.29Z"/><path class="cls-2" d="M32.84,33.31l.36,1.93c.12.63.79,1.1,1.5,1.05l12.57-.81c.68-.04,1.12-.58,1-1.19l-.38-1.88c-.12-.61-.77-1.07-1.44-1.03l-3.33.19-.54-2.74c-.12-.61-.77-1.07-1.45-1.04l-3.25.16c-.69.03-1.16.56-1.04,1.17l.53,2.77-3.44.2c-.71.04-1.19.58-1.07,1.2Z"/></svg>