<?xml version="1.0" encoding="UTF-8"?><svg id="Laag_1" xmlns="http://www.w3.org/2000/svg" viewBox="0 0 90 120"><defs><style>.cls-1,.cls-2,.cls-3,.cls-4,.cls-5{stroke-width:0px;}.cls-2{fill:#ff8700;}.cls-3{fill:none;}.cls-4{fill:#faf9f6;}.cls-5{fill:#fad600;}</style></defs><g id="Group_69"><g id="Group_68"><ellipse id="Ellipse_13" class="cls-2" cx="55.22" cy="60" rx="60.32" ry="32.65" transform="translate(-11.07 107.49) rotate(-83)"/></g></g><polygon class="cls-4" points="2.47 7 2.47 109.52 42.03 98.96 42.03 13.52 2.47 7"/><path class="cls-4" d="M36.03,86.48v-25.65l-6.03.41c-.16,1.58-.05,17.64.03,26.39l6-1.15Z"/><polygon class="cls-4" points="19.04 62.12 12.07 62.63 12.07 91.08 19.04 89.88 19.04 62.12"/><path class="cls-4" d="M27.94,90.42l9.79-2.32v-29.6l-9.79.59v31.33ZM29.37,65.28c0-1.32.02-2.34.03-3.04q.03-1.29.28-1.33h.04s6.87-.47,6.87-.47v26.31l-7.11,1.36v-.24c0-.07-.07-6.76-.1-13.38-.02-3.89-.02-6.98-.01-9.21Z"/><polygon class="cls-4" points="29.67 46.43 35.92 46.43 35.92 20.46 29.67 19.71 29.67 46.43"/><path class="cls-4" d="M27.94,48.65l9.67-.17v-29.81l-9.67-1.36v31.34ZM29.11,19.28l7.37.88v26.62h-7.37v-27.5Z"/><path class="cls-4" d="M21.78,59.5l-12,.67v34.2l12-2.77v-32.1ZM19.97,90.34l-8.82,1.52v-29.76l8.82-.64v28.88Z"/><path class="cls-4" d="M9.78,14.77v34.22l11.75-.24-.19-32.33-11.56-1.64ZM19.97,47.02h-8.82v-30l8.82,1.01v28.98Z"/><polygon class="cls-4" points="19.04 18.53 12.07 17.73 12.07 46.43 19.04 46.43 19.04 18.53"/><path class="cls-1" d="M22.27,16.18v-.24s-13.41-1.91-13.41-1.91v35.57l13.6-.28-.19-33.15ZM9.78,48.99V14.77l11.56,1.64.19,32.33-11.75.24Z"/><path class="cls-1" d="M38.54,18.2l-11.52-1.62v32.68l11.52-.2v-30.86ZM37.61,48.48l-9.67.17v-31.34l9.67,1.36v29.81Z"/><path class="cls-1" d="M8.86,101.87l13.85-3.56v-39.34l-13.85.87v42.03ZM9.78,60.44l12-.75v38.16l-12,3.08v-40.49Z"/><path class="cls-1" d="M38.66,57.85l-11.65.78v38.85l11.65-3.07v-36.56ZM37.74,93.95l-9.79,2.58v-37.3l9.79-.66v35.38Z"/><path class="cls-1" d="M11.14,47.02h8.82v-28.98l-8.82-1.01v30ZM12.07,17.73l6.97.8v27.9h-6.97v-28.7Z"/><path class="cls-1" d="M36.48,20.16l-7.37-.88v27.5h7.37v-26.62ZM35.92,46.43h-6.25v-26.72l6.25.75v25.97Z"/><path class="cls-1" d="M11.14,98.13l8.82-1.69v-34.57l-8.82.71v35.55ZM12.07,63.17l6.97-.56v33.33l-6.97,1.34v-34.1Z"/><path class="cls-1" d="M29.47,91.24v2.7s7.11-1.51,7.11-1.51v-31.71l-6.87.52h-.04q-.25.05-.28,1.49c-.02.78-.03,1.91-.03,3.38-.01,2.47,0,5.92.01,10.24.03,7.36.09,14.81.09,14.88ZM30,61.62l6.03-.45v30.98l-6,1.27c-.08-9.73-.19-30.04-.03-31.8Z"/><path class="cls-5" d="M5.17,55.42c.04.77.51,1.59,1.41,1.57.85,0,1.32-.27,1.52-.84l.14-.39.55.21c.59.22,1.2.33,1.91.34h0c.68,0,1.22-.46,1.22-1.01s-.55-1.01-1.23-1.01c-.04,0-.09,0-.16,0h-.03c-.7.05-1.23.15-1.63.33l-.62.27-.1-.48c-.15-.69-.54-.93-1.48-.93-.02,0-.04,0-.07,0-.96.02-1.48,1-1.43,1.94Z"/><path class="cls-1" d="M6.54,57.58s.04,0,.06,0c1.08-.01,1.84-.34,2.23-.95.55.16,1.14.24,1.79.25h.07c1.19,0,2.16-.72,2.16-1.6s-.97-1.6-2.16-1.6c-.09,0-.19,0-.29.02-.56.04-1.05.11-1.47.23-.24-.53-.82-1.05-2.36-1.03-1.62.04-2.4,1.31-2.33,2.55.07,1.29.99,2.14,2.3,2.14ZM6.67,53.47c.94,0,1.33.25,1.48.93l.1.48.62-.27c.4-.18.94-.29,1.63-.33h.03c.06,0,.11-.01.16-.01.68,0,1.23.45,1.23,1.01s-.55,1.01-1.22,1.01h0c-.71,0-1.32-.12-1.91-.34l-.55-.21-.14.39c-.21.57-.67.83-1.52.84-.9.02-1.37-.8-1.41-1.57-.05-.94.48-1.92,1.43-1.94.02,0,.04,0,.07,0Z"/><polygon class="cls-3" points="2.47 7 2.47 109.52 42.03 98.96 42.03 13.52 2.47 7"/><path class="cls-1" d="M1.54,6.15v104.27l41.41-11.06V13.11L1.54,6.15ZM2.47,109.52V7l39.56,6.51v85.44L2.47,109.52Z"/></svg>