<?xml version="1.0" encoding="UTF-8"?><svg id="Laag_1" xmlns="http://www.w3.org/2000/svg" viewBox="0 0 90 120"><defs><style>.cls-1,.cls-2,.cls-3,.cls-4,.cls-5{stroke-width:0px;}.cls-2{fill:#ff8700;}.cls-3{fill:none;}.cls-4{fill:#faf9f6;}.cls-5{fill:#fad600;}</style></defs><g id="Group_69"><g id="Group_68"><ellipse id="Ellipse_13" class="cls-2" cx="45" cy="60" rx="32.65" ry="60.32" transform="translate(-6.98 5.93) rotate(-7)"/></g></g><polygon class="cls-4" points="72.73 6.55 72.73 109.98 28.87 99.32 28.87 13.12 72.73 6.55"/><path class="cls-4" d="M35.51,86.73v-25.88l6.69.41c.17,1.6.06,17.79-.03,26.62l-6.66-1.16Z"/><polygon class="cls-4" points="54.35 62.16 62.09 62.67 62.09 91.37 54.35 90.16 54.35 62.16"/><path class="cls-4" d="M44.48,90.7l-10.86-2.34v-29.87l10.86.59v31.61ZM42.9,65.34c0-1.33-.02-2.37-.04-3.07q-.03-1.3-.31-1.34h-.04s-7.61-.47-7.61-.47v26.54l7.89,1.37v-.24c0-.07.07-6.82.11-13.5.02-3.92.02-7.05.01-9.29Z"/><polygon class="cls-4" points="42.57 46.32 35.64 46.32 35.64 20.12 42.57 19.36 42.57 46.32"/><path class="cls-4" d="M44.48,48.56l-10.72-.17v-30.07l10.72-1.37v31.62ZM43.19,18.93l-8.17.89v26.85h8.17v-27.74Z"/><path class="cls-4" d="M51.31,59.51l13.31.68v34.5l-13.31-2.8v-32.39ZM53.33,90.62l9.79,1.53v-30.02l-9.79-.65v29.13Z"/><path class="cls-4" d="M64.62,14.38v34.52l-13.03-.24.21-32.62,12.82-1.66ZM53.33,46.92h9.79v-30.26l-9.79,1.02v29.24Z"/><polygon class="cls-4" points="54.35 18.18 62.09 17.37 62.09 46.32 54.35 46.32 54.35 18.18"/><path class="cls-1" d="M50.78,15.8v-.24s14.87-1.92,14.87-1.92v35.89l-15.08-.28.21-33.44ZM64.62,48.91V14.38l-12.82,1.66-.21,32.62,13.03.24Z"/><path class="cls-1" d="M32.73,17.84l12.77-1.64v32.97l-12.77-.2v-31.14ZM33.76,48.39l10.72.17v-31.62l-10.72,1.37v30.07Z"/><path class="cls-1" d="M65.65,102.26l-15.36-3.59v-39.69l15.36.87v42.41ZM64.62,60.46l-13.31-.76v38.5l13.31,3.11v-40.85Z"/><path class="cls-1" d="M32.59,57.84l12.91.79v39.2l-12.91-3.1v-36.88ZM33.62,94.26l10.86,2.61v-37.64l-10.86-.66v35.69Z"/><path class="cls-1" d="M63.11,46.92h-9.79v-29.24l9.79-1.02v30.26ZM62.09,17.37l-7.73.81v28.14h7.73v-28.95Z"/><path class="cls-1" d="M35.02,19.82l8.17-.89v27.74h-8.17v-26.85ZM35.64,46.32h6.94v-26.95l-6.94.76v26.2Z"/><path class="cls-1" d="M63.11,98.48l-9.79-1.71v-34.88l9.79.72v35.86ZM62.09,63.21l-7.73-.57v33.62l7.73,1.35v-34.4Z"/><path class="cls-1" d="M42.79,91.53v2.73s-7.89-1.52-7.89-1.52v-31.99l7.61.52h.04q.28.05.31,1.5c.02.78.03,1.93.04,3.41.01,2.5,0,5.97-.01,10.33-.03,7.43-.1,14.94-.1,15.02ZM42.21,61.65l-6.69-.46v31.25l6.66,1.29c.09-9.82.21-30.3.03-32.08Z"/><path class="cls-5" d="M69.74,55.39c-.05.78-.56,1.6-1.56,1.59-.94,0-1.46-.27-1.69-.85l-.16-.4-.6.21c-.65.22-1.33.33-2.12.34h0c-.75,0-1.36-.46-1.36-1.02s.61-1.02,1.37-1.02c.05,0,.1,0,.17,0h.03c.77.05,1.36.16,1.81.34l.69.28.12-.48c.17-.69.6-.94,1.64-.94.02,0,.05,0,.07,0,1.06.02,1.65,1.01,1.59,1.96Z"/><path class="cls-1" d="M68.21,57.57s-.04,0-.07,0c-1.2-.01-2.04-.34-2.47-.96-.62.16-1.27.24-1.98.25h-.08c-1.32,0-2.39-.73-2.39-1.62s1.07-1.62,2.39-1.62c.1,0,.21,0,.32.02.62.04,1.16.11,1.63.23.27-.54.91-1.06,2.61-1.04,1.8.04,2.66,1.33,2.59,2.58-.08,1.3-1.1,2.16-2.55,2.16ZM68.08,53.43c-1.04,0-1.48.25-1.64.94l-.12.48-.69-.28c-.45-.18-1.04-.29-1.81-.33h-.03c-.07,0-.12-.01-.17-.01-.75,0-1.37.46-1.37,1.02s.61,1.02,1.36,1.02h0c.79,0,1.47-.12,2.12-.34l.6-.21.16.4c.23.58.75.84,1.69.85,1,.02,1.52-.81,1.56-1.59.06-.94-.53-1.93-1.59-1.96-.02,0-.05,0-.07,0Z"/><polygon class="cls-3" points="72.73 6.55 72.73 109.98 28.87 99.32 28.87 13.12 72.73 6.55"/><path class="cls-1" d="M73.76,5.68v105.19l-45.91-11.16V12.7l45.91-7.02ZM72.73,109.98V6.55l-43.86,6.57v86.2l43.86,10.66Z"/></svg>