<?xml version="1.0" encoding="UTF-8"?><svg id="Laag_1" xmlns="http://www.w3.org/2000/svg" viewBox="0 0 90 120"><defs><style>.cls-1,.cls-2,.cls-3,.cls-4,.cls-5,.cls-6,.cls-7{stroke-width:0px;}.cls-2{fill:#26a9e1;}.cls-3{fill:#ff8700;}.cls-4{fill:#e6e7e9;}.cls-5{fill:#fff;}.cls-6{fill:#a87c4f;}.cls-7{fill:#ef4138;}</style></defs><g id="Group_69"><g id="Group_68"><ellipse id="Ellipse_13" class="cls-3" cx="42.88" cy="60" rx="60.32" ry="32.65" transform="translate(-21.9 95.25) rotate(-83)"/></g></g><path class="cls-5" d="M50.19,28.94l-22.67,24.46,1.3,40.61,43.79-3.16,3.32-35-25.74-26.91ZM48.71,77.76l-14.66.62-.2-18.16,15.27-.41-.41,17.95ZM69.06,76.89l-13.31.62.67-17.68,13.86-.31-1.23,17.37Z"/><path class="cls-7" d="M50.85,28.23l25.93,27.11c.09.1.14.23.13.37l-.25,3.26,10.63.25L55.09,23.65l-4.24,4.57Z"/><path class="cls-1" d="M88.76,59.4L55.45,22.62s0,0,0,0h0s0,0,0-.01c-.02-.02-.04-.04-.06-.05,0,0-.02-.01-.02-.02-.02-.01-.04-.02-.06-.03,0,0-.02,0-.03-.01-.02,0-.05-.02-.07-.02,0,0-.01,0-.02,0-.03,0-.06,0-.09,0,0,0,0,0,0,0h0s-.01,0-.02,0c-.02,0-.04,0-.06,0-.01,0-.02,0-.03,0,0,0-.02,0-.02,0l-22.39,6.68.03-2.15c0-.2-.11-.38-.3-.45l-5.99-2.51c-.12-.05-.25-.05-.37,0l-.05.02s0,0,0,0l-7.14,2.99c-.19.08-.31.27-.3.47l.57,11.86L1.25,57.94c-.13.13-.17.33-.1.5.07.17.22.29.41.31l7.7.7,2.09,25.31c.01.16.1.3.23.38l16.5,9.78s0,0,0,0h0s0,0,0,0c.03.02.06.03.1.04,0,0,.02,0,.03,0,.04,0,.07.01.11.01.01,0,.02,0,.03,0l44.7-3.22c.24-.02.42-.2.45-.44l2.98-31.42,11.88.28s0,0,.01,0c.19,0,.36-.11.44-.28.08-.18.05-.38-.08-.52ZM76.66,58.96l.25-3.26c.01-.14-.04-.27-.13-.37l-25.93-27.11,4.24-4.57,32.2,35.56-10.63-.25ZM19.27,44.59s0,.06.01.09c.05.2.22.35.43.37l6.87.57s0,0,0,0h.04s.04,0,.04,0h0s.03,0,.04,0,.03,0,.04,0c.01,0,.03,0,.04,0,.02,0,.04,0,.06-.02.01,0,.03,0,.04-.01.02,0,.04-.02.06-.03.01,0,.02-.01.03-.02.03-.02.06-.04.08-.07l5.21-5.6c.08-.09.13-.2.13-.32l.14-9.39,20.99-6.26L20.53,59.51l-17.88-1.63,16.44-17.17.19,3.88ZM31.62,27.31l-.19,12.04-4.36,4.68-.51-18.84,5.05,2.12ZM25.61,25.22l.18,6.79.34,12.6-5.91-.49-.78-16.31,6.18-2.59ZM20.67,60.5s.03,0,.04,0c.01,0,.02,0,.03,0,.02,0,.04,0,.06,0,.01,0,.03,0,.04,0,.02,0,.04-.01.06-.02.01,0,.03-.01.04-.02.02,0,.03-.02.05-.03.03-.02.05-.04.08-.07l5.51-5.94,1.25,39.25-5.2-3.08-1.17-21.41-6.52-1.14,1.28,18.75-3.93-2.33-2.06-24.9,10.44.95ZM17.22,87.25l-1.23-18.06,4.55.79,1.09,19.94-4.41-2.68ZM28.81,94l-1.3-40.61,22.67-24.46,25.74,26.91-3.32,35-43.79,3.16Z"/><path class="cls-4" d="M16.22,86.77l-1.28-18.75,6.52,1.14,1.17,21.41,5.2,3.08-1.25-39.25-5.51,5.94s-.05.05-.08.07c-.02.01-.03.02-.05.03-.01,0-.03.02-.04.02-.02,0-.04.01-.06.02-.01,0-.03,0-.04,0-.02,0-.04,0-.06,0-.01,0-.02,0-.03,0-.01,0-.03,0-.04,0l-10.44-.95,2.06,24.9,3.93,2.33Z"/><path class="cls-7" d="M20.53,59.51L53.53,23.91l-20.99,6.26-.14,9.39c0,.12-.05.23-.13.32l-5.21,5.6s-.05.05-.08.07c-.01,0-.02.01-.03.02-.02.01-.04.02-.06.03-.01,0-.03,0-.04.01-.02,0-.04.01-.06.02-.01,0-.03,0-.04,0-.01,0-.03,0-.04,0s-.03,0-.04,0h-.04s-.04,0-.04,0c0,0,0,0,0,0l-6.87-.57c-.21-.02-.38-.17-.43-.37,0-.03-.01-.06-.01-.09l-.19-3.88L2.64,57.89l17.88,1.63Z"/><polygon class="cls-4" points="20.21 44.12 26.13 44.61 25.79 32.02 25.61 25.22 19.43 27.81 20.21 44.12"/><polygon class="cls-5" points="31.44 39.35 31.62 27.31 26.57 25.2 27.08 44.03 31.44 39.35"/><polygon class="cls-2" points="48.13 60.8 34.82 61.16 34.87 65.6 48.03 65.24 48.13 60.8"/><polygon class="cls-2" points="41.19 77.11 41.19 66.39 34.88 66.56 35 77.37 41.19 77.11"/><polygon class="cls-2" points="42.15 66.37 42.15 77.07 47.76 76.83 48 66.21 42.15 66.37"/><path class="cls-1" d="M34.05,78.38l14.66-.62.41-17.95-15.27.41.2,18.16ZM34.82,61.16l13.31-.36-.1,4.44-13.16.36-.05-4.44ZM41.19,66.39v10.72l-6.18.26-.12-10.81,6.31-.17ZM42.15,77.07v-10.7l5.85-.16-.24,10.63-5.61.24Z"/><polygon class="cls-2" points="63.76 65.79 63.23 76.2 68.15 75.97 68.88 65.63 63.76 65.79"/><polygon class="cls-2" points="57.15 65.99 56.75 76.5 62.26 76.24 62.79 65.82 57.15 65.99"/><polygon class="cls-2" points="68.95 64.66 69.25 60.51 57.35 60.78 57.19 65.02 68.95 64.66"/><path class="cls-1" d="M55.75,77.51l13.31-.62,1.23-17.37-13.86.31-.67,17.68ZM69.25,60.51l-.29,4.16-11.76.36.16-4.24,11.9-.27ZM56.75,76.5l.4-10.51,5.64-.17-.53,10.42-5.51.26ZM63.23,76.2l.53-10.41,5.13-.16-.73,10.33-4.93.23Z"/><polygon class="cls-6" points="15.99 69.19 17.22 87.25 21.63 89.93 20.55 69.98 15.99 69.19"/></svg>