<?xml version="1.0" encoding="UTF-8"?><svg xmlns="http://www.w3.org/2000/svg" xmlns:xlink="http://www.w3.org/1999/xlink" viewBox="0 0 120 120"><defs><style>.cls-1{fill:url(#linear-gradient-7);}.cls-1,.cls-2,.cls-3,.cls-4,.cls-5,.cls-6,.cls-7,.cls-8,.cls-9,.cls-10,.cls-11,.cls-12,.cls-13,.cls-14,.cls-15{stroke-width:0px;}.cls-1,.cls-3,.cls-4,.cls-6,.cls-9,.cls-11,.cls-13{mix-blend-mode:multiply;}.cls-1,.cls-4,.cls-6,.cls-13{opacity:.35;}.cls-2{fill:url(#linear-gradient);}.cls-3{fill:url(#_Áåçûìÿííûé_ãðàäèåíò_6);}.cls-3,.cls-11{opacity:.66;}.cls-4{fill:url(#linear-gradient-8);}.cls-16{isolation:isolate;}.cls-5{fill:#ff8700;}.cls-6{fill:url(#linear-gradient-6);}.cls-7{fill:url(#linear-gradient-5);}.cls-8{fill:none;}.cls-9{fill:url(#linear-gradient-2);opacity:.5;}.cls-10{fill:#b3cbff;mix-blend-mode:overlay;}.cls-17{clip-path:url(#clippath);}.cls-11{fill:url(#_Áåçûìÿííûé_ãðàäèåíò_6-2);}.cls-12{fill:#fff0b3;mix-blend-mode:soft-light;}.cls-13{fill:url(#linear-gradient-3);}.cls-14{fill:url(#linear-gradient-4);}.cls-15{fill:#ffc700;}</style><clipPath id="clippath"><polygon class="cls-8" points="109.5 40.6 109.41 40.6 109.41 40.56 61.03 3.5 10.5 25.56 10.5 97.49 59.87 120 109.41 97.41 109.41 25.64 109.5 40.6"/></clipPath><linearGradient id="_Áåçûìÿííûé_ãðàäèåíò_6" x1="41.21" y1="44.77" x2="41.82" y2="63.65" gradientUnits="userSpaceOnUse"><stop offset="0" stop-color="#b04b0d"/><stop offset=".1" stop-color="#b35115"/><stop offset=".26" stop-color="#bb642d"/><stop offset=".47" stop-color="#c98355"/><stop offset=".7" stop-color="#dcad8b"/><stop offset=".96" stop-color="#f5e3d0"/><stop offset="1" stop-color="#f9ebdb"/></linearGradient><linearGradient id="linear-gradient" x1="78.11" y1="94.64" x2="40.46" y2="94.64" gradientUnits="userSpaceOnUse"><stop offset="0" stop-color="#93d6ff"/><stop offset=".29" stop-color="#8bcbfe"/><stop offset=".78" stop-color="#79b0fc"/><stop offset="1" stop-color="#6fa2fb"/></linearGradient><linearGradient id="linear-gradient-2" x1="68.79" y1="100.4" x2="71.13" y2="75.35" gradientUnits="userSpaceOnUse"><stop offset="0" stop-color="#ff9fd1"/><stop offset=".99" stop-color="#4d0060"/></linearGradient><linearGradient id="linear-gradient-3" x1="47.23" y1="25.16" x2="40.93" y2="41.39" gradientUnits="userSpaceOnUse"><stop offset="0" stop-color="#ff9fd1"/><stop offset=".99" stop-color="#840672"/></linearGradient><linearGradient id="linear-gradient-4" x1="53.29" y1="46.13" x2="30.73" y2="46.13" xlink:href="#linear-gradient"/><linearGradient id="_Áåçûìÿííûé_ãðàäèåíò_6-2" x1="74.89" y1="76.1" x2="77.81" y2="55.41" xlink:href="#_Áåçûìÿííûé_ãðàäèåíò_6"/><linearGradient id="linear-gradient-5" x1="88.33" y1="72.64" x2="65.78" y2="72.64" xlink:href="#linear-gradient"/><linearGradient id="linear-gradient-6" x1="45.72" y1="41.98" x2="34.72" y2="59.75" xlink:href="#linear-gradient-3"/><linearGradient id="linear-gradient-7" x1="81.25" y1="63.99" x2="70.25" y2="81.76" xlink:href="#linear-gradient-3"/><linearGradient id="linear-gradient-8" x1="94.68" y1="15.11" x2="78.2" y2="57.55" xlink:href="#linear-gradient-3"/></defs><g class="cls-16"><g id="Laag_1"><polygon class="cls-5" points="109.5 40.6 109.41 40.6 109.41 40.56 61.03 18.5 10.5 40.56 10.5 97.49 59.87 120 109.41 97.41 109.41 40.64 109.5 40.6"/><g class="cls-17"><path class="cls-15" d="M53.29,59.98c-.13.42-.35.81-.66,1.16-2.12,2.41-7.99,3.09-10.62,3.09-3.01,0-10.28-.89-11.28-4.24-.78-4.13,2.01-13.18,2.01-13.18l9.27.34,9.27-.34s.62,2.03,1.2,4.6c.64,2.86,1.22,6.4.81,8.58Z"/><path class="cls-3" d="M52.63,61.13c-2.12,2.41-7.99,3.09-10.62,3.09-3.01,0-10.28-.89-11.28-4.24-.78-4.13,2.01-13.18,2.01-13.18l9.27.34,9.27-.34s.62,2.03,1.2,4.6c-3.07,2.38-9.82-.34-14.8,2.31-.53.28-1.28.75-1.72,1.61-.92,1.83.13,4.32.91,5.35,2.82,3.74,11.41.94,15.76.46Z"/><path class="cls-2" d="M73.9,177.52c-3.41-1.46-6.07-3.28-8.11-5.12-1.61-1.46-2.85-2.93-3.78-4.25-.64-.91-.98-1.99-.97-3.1.04-11.5.11-34.62.14-63.67,0,0,0,.01.03.03,1.63,2.29,3.83,3.73,6.14,3.73.05,0,.1,0,.15,0,3.19-.09,10.62-3.17,10.62-29.83h-3.08c0,2.54-.07,4.85-.2,6.96-.93,15.3-4.94,19.72-7.43,19.79-2.55.09-5.94-4.3-6.23-9.55,0-4.18,0-8.6,0-13.11,0-26.03-.04-54.97-.18-57.39-.37-6.8-3.92-11.63-8.44-11.52-5.06.13-10.43,6.52-11.78,23.4-.21,2.62-.32,5.5-.32,8.64h3.08c0-1.35.02-2.64.06-3.87.64-19.55,6.08-25,9.04-25.09h.07c2.31,0,4.89,2.99,5.2,8.61.97,17.64.35,113.39.1,142.78-.01,1.08-.34,2.13-.96,3.01-2.09,3.02-5.78,6.86-12,9.53-2.54,1.04,14.42,1.27,14.42,1.27,0,0,16.96-.23,14.42-1.27Z"/><path class="cls-9" d="M78.11,75.31c0,26.66-7.43,29.74-10.62,29.83-.05,0-.1,0-.15,0-2.31,0-4.51-1.44-6.14-3.73.62.74,11.29,12.89,15.86-17.79.49-3.25-.83-3.43-2.22-1.35.13-2.11.2-4.42.2-6.96h3.08Z"/><path class="cls-13" d="M43.6,38.67c-.04,1.23-.06,2.52-.06,3.87h-3.08c0-3.14.11-6.02.32-8.64.46,2.64,1.13,4.86,2.07,5.03.26.05.51-.05.75-.27Z"/><path class="cls-14" d="M53.29,48.53c-2.12,1.4-8.42,1.85-11.28,1.85s-9.16-.45-11.28-1.85c1-7.2,11.28-6.64,11.28-6.64,0,0,.59-.03,1.49.02,2.47.14,7.35.88,9.16,4.56.3.61.52,1.29.62,2.07Z"/><path class="cls-15" d="M86.32,71.96l-9.27-.34-9.27.34s-2.79-9.05-2.01-13.18c.9-3.02,6.89-4.04,10.27-4.22.37-.02.71-.03,1.01-.03,3.01,0,10.28.89,11.28,4.24.05.29.09.59.11.92.3,4.41-2.12,12.26-2.12,12.26Z"/><path class="cls-11" d="M86.32,71.96l-9.27-.34-9.27.34s-2.79-9.05-2.01-13.18c.9-3.02,6.89-4.04,10.27-4.22-.64.45-1.26,1.02-1.81,1.76-2.27,3.09-2.61,8.36-.5,9.9,3.04,2.22,9.82-4.39,14.71-6.52.3,4.41-2.12,12.26-2.12,12.26Z"/><path class="cls-7" d="M88.33,70.23c-.17,1.21-.6,2.2-1.19,3.01-2.96,4.02-10.09,3.64-10.09,3.64,0,0-10.27.55-11.28-6.65,1.91-1.26,7.21-1.75,10.33-1.83.34-.01.66-.02.94-.02,2.86,0,9.16.45,11.28,1.84Z"/><path class="cls-6" d="M53.29,48.53c-2.12,1.4-8.42,1.85-11.28,1.85s-9.16-.45-11.28-1.85c1-7.2,11.28-6.64,11.28-6.64,0,0,.59-.03,1.49.02-1.99.36-4.64,1.05-5.88,3.26-.15.28-1.2,2.13-.47,3.18,1.72,2.48,10.88-2.99,15.51-1.88.3.61.52,1.29.62,2.07Z"/><path class="cls-1" d="M87.14,73.24c-2.96,4.02-10.09,3.64-10.09,3.64,0,0-10.27.55-11.28-6.65,1.91-1.26,7.21-1.75,10.33-1.83,1.33,2.34.67,4.63,2.34,5.8,2.44,1.7,6.58-1.21,8.69-.97Z"/><path class="cls-4" d="M59.47,178.79s-16.96-.23-14.42-1.27c6.22-2.67,9.91-6.51,12-9.53.61-.89.94-1.93.96-3.01.25-29.39.87-125.14-.1-142.78-.31-5.62-2.89-8.61-5.2-8.61h-.07s4.67-1.68,5.79,3.83c1.12,5.51-.8,148.92.85,151.33,1.05,1.54,3.85,4.34,6.5,3.66,2.04,1.84,4.7,3.66,8.11,5.12,2.54,1.04-14.42,1.27-14.42,1.27Z"/><path class="cls-10" d="M38.83,44.42c-.01-.75,2.71-1.47,4.77-1.59,2.33-.14,5.14.41,5.19,1.17.05.69-2.14,1.49-3.88,1.73-2.89.41-6.07-.5-6.08-1.31Z"/><path class="cls-10" d="M79.48,69.34c.46-.88,3.13-.31,5.05.09,1.75.37,2.85.6,2.95,1.17.16.93-2.37,2.83-4.72,2.34-2.13-.44-3.72-2.75-3.27-3.6Z"/><path class="cls-12" d="M87.66,58.45c.14-1.55-8.06-4.57-9.68-2.53-.59.74-.12,1.91-.09,1.96.85,2.01,4.54,2.17,6.69,1.82.85-.14,3.01-.49,3.09-1.26Z"/><path class="cls-12" d="M51.09,54.47c-2.61-2.32-11.8,2.25-11.46,4.68.23,1.65,4.96,2.88,8.56,1.68.89-.3,2.93-.98,3.55-2.81.39-1.15.23-2.77-.65-3.55Z"/></g></g></g></svg>