<?xml version="1.0" encoding="UTF-8"?><svg xmlns="http://www.w3.org/2000/svg" xmlns:xlink="http://www.w3.org/1999/xlink" viewBox="0 0 120 120"><defs><style>.cls-1{fill:url(#_Áåçûìÿííûé_ãðàäèåíò_6);opacity:.34;}.cls-1,.cls-2,.cls-3,.cls-4,.cls-5,.cls-6,.cls-7,.cls-8,.cls-9{stroke-width:0px;}.cls-1,.cls-5{mix-blend-mode:multiply;}.cls-2{fill:url(#linear-gradient);}.cls-10{isolation:isolate;}.cls-3{fill:#ff8700;}.cls-4{fill:none;}.cls-5{fill:url(#linear-gradient-2);opacity:.5;}.cls-6{fill:url(#linear-gradient-3);}.cls-11{clip-path:url(#clippath);}.cls-7{fill:#d8c598;mix-blend-mode:overlay;opacity:.41;}.cls-8{fill:url(#linear-gradient-4);}.cls-9{fill:#ffe9ab;mix-blend-mode:soft-light;opacity:.77;}</style><clipPath id="clippath"><polygon class="cls-4" points="109.5 40.6 109.41 40.6 109.41 40.56 61.03 3.5 10.5 25.56 10.5 97.49 59.87 120 109.41 97.41 109.41 25.64 109.5 40.6"/></clipPath><linearGradient id="linear-gradient" x1="38.57" y1="125.35" x2="81.9" y2="125.35" gradientUnits="userSpaceOnUse"><stop offset="0" stop-color="#661400"/><stop offset=".53" stop-color="#8f2b01"/><stop offset="1" stop-color="#b74103"/></linearGradient><linearGradient id="linear-gradient-2" x1="38.57" y1="136.08" x2="81.9" y2="136.08" gradientUnits="userSpaceOnUse"><stop offset="0" stop-color="#600084"/><stop offset="1" stop-color="#fef6f6"/></linearGradient><linearGradient id="linear-gradient-3" x1="48.82" y1="81.96" x2="71.35" y2="81.96" xlink:href="#linear-gradient"/><linearGradient id="linear-gradient-4" x1="106.35" y1=".65" x2="26.47" y2="82.06" gradientUnits="userSpaceOnUse"><stop offset=".41" stop-color="#ffb961"/><stop offset="1" stop-color="#b74103"/></linearGradient><linearGradient id="_Áåçûìÿííûé_ãðàäèåíò_6" x1="31.97" y1="42.46" x2="88.5" y2="42.46" gradientUnits="userSpaceOnUse"><stop offset="0" stop-color="#b04b0d"/><stop offset=".1" stop-color="#b35115"/><stop offset=".26" stop-color="#bb642d"/><stop offset=".47" stop-color="#c98355"/><stop offset=".7" stop-color="#dcad8b"/><stop offset=".96" stop-color="#f5e3d0"/><stop offset="1" stop-color="#f9ebdb"/></linearGradient></defs><g class="cls-10"><g id="Laag_1"><polygon class="cls-3" points="109.5 40.6 109.41 40.6 109.41 40.56 61.03 18.5 10.5 40.56 10.5 97.49 59.87 120 109.41 97.41 109.41 40.64 109.5 40.6"/><g class="cls-11"><path class="cls-2" d="M60.24,190.24s-22.63-.33-21.64-2.15c.99-1.81,16.51-2.09,18.33-7.54,1.33-4,1.33-65.89,1.24-98.61-.03-11.89-.08-19.93-.08-19.93l2.15-1.55,2.15,1.55s-.05,8.03-.08,19.91c0,2.28-.01,4.69-.02,7.22-.07,33.83.02,87.68,1.26,91.4,1.2,3.59,8.36,4.93,13.38,5.96,2.59.52,4.61.96,4.95,1.58.99,1.82-21.63,2.15-21.63,2.15Z"/><path class="cls-5" d="M60.24,190.24s-22.63-.33-21.64-2.15c.99-1.81,16.51-2.09,18.33-7.54,1.33-4,1.33-65.89,1.24-98.61,1.49-.01,2.87-.02,4.14-.02,0,2.28-.01,4.69-.02,7.22-.86.44-1.65,1.87-2.2,5.05-1.88,10.84-2.97,87.24,0,89.75,2.02,1.72,11.04,3.75,16.84,2.56,2.59.52,4.61.96,4.95,1.58.99,1.82-21.63,2.15-21.63,2.15Z"/><path class="cls-6" d="M70.96,84.84c-.95,1.36-21.06.66-21.75-1-.69-1.66-.31-4.65,0-5.21.01-.01.02-.02.04-.04.65-.49,8.31-.08,10.99-.05,3.27.03,10.72.65,10.72.65,0,0,.89,4.38,0,5.66Z"/><path class="cls-8" d="M88.46,58.15c-.82,4.29-21.29,5.61-28.23,5.61s-27.41-1.32-28.23-5.61c-.83-4.29,12.54-35.34,14.68-36.33.63-.29,1.77-.51,3.14-.67,3.3-.4,8.01-.48,10.4-.48,3.4,0,11.4.17,13.54,1.16,1.71.79,10.49,20.54,13.61,30.78.81,2.65,1.24,4.67,1.07,5.55Z"/><path class="cls-7" d="M70.96,79.19c-8.57,1.1-21.75-.56-21.75-.56.01-.01.02-.02.04-.04.65-.49,8.31-.08,10.99-.05,3.27.03,10.72.65,10.72.65Z"/><path class="cls-1" d="M88.46,58.15c-.82,4.29-21.29,5.61-28.23,5.61s-27.41-1.32-28.23-5.61c-.83-4.29,12.54-35.34,14.68-36.33.63-.29,1.77-.51,3.14-.67-.91,7.9-1.4,24.93,10.29,30.63,9.98,4.87,20.85,2.85,27.27.82.81,2.65,1.24,4.67,1.07,5.55Z"/><path class="cls-9" d="M55.05,23.38c1.29-2.83,14.38-2.9,21.04,5.49,3.18,4.01,5.48,10.7,3.43,12.35-4.14,3.32-26.43-13.55-24.47-17.84Z"/><path class="cls-9" d="M65.37,23.38c-.49.6,1.78,3.99,5.26,5.49,1.96.84,4.79,1.3,5.03.69.5-1.25-9.46-7.2-10.29-6.18Z"/></g></g></g></svg>