<?xml version="1.0" encoding="UTF-8"?><svg xmlns="http://www.w3.org/2000/svg" xmlns:xlink="http://www.w3.org/1999/xlink" viewBox="0 0 120 120"><defs><style>.cls-1{fill:#f2bbff;}.cls-1,.cls-2,.cls-3,.cls-4,.cls-5,.cls-6,.cls-7,.cls-8,.cls-9,.cls-10,.cls-11,.cls-12,.cls-13,.cls-14,.cls-15,.cls-16{stroke-width:0px;}.cls-1,.cls-16{mix-blend-mode:soft-light;}.cls-2{fill:url(#linear-gradient);}.cls-3{fill:url(#linear-gradient-7);}.cls-3,.cls-4,.cls-5,.cls-6,.cls-10,.cls-11,.cls-14,.cls-15{mix-blend-mode:multiply;}.cls-3,.cls-5,.cls-6,.cls-10,.cls-14{opacity:.5;}.cls-4{fill:url(#linear-gradient-5);opacity:.7;}.cls-17{isolation:isolate;}.cls-5{fill:url(#linear-gradient-6);}.cls-6{fill:url(#linear-gradient-10);}.cls-7{fill:#ff8700;}.cls-8{fill:#f066ff;}.cls-9{fill:none;}.cls-10{fill:url(#linear-gradient-8);}.cls-11{fill:url(#linear-gradient-4);}.cls-11,.cls-15{opacity:.35;}.cls-12{fill:#cf5ec8;}.cls-13{fill:url(#linear-gradient-3);}.cls-18{clip-path:url(#clippath);}.cls-14{fill:url(#linear-gradient-9);}.cls-15{fill:url(#linear-gradient-2);}.cls-16{fill:#deb0ff;opacity:.4;}</style><clipPath id="clippath"><polygon class="cls-9" points="109.5 40.6 109.41 40.6 109.41 40.56 61.03 3.5 10.5 25.56 10.5 97.49 59.87 120 109.41 97.41 109.41 25.64 109.5 40.6"/></clipPath><linearGradient id="linear-gradient" x1="61.11" y1="118.34" x2="60.85" y2="110.82" gradientUnits="userSpaceOnUse"><stop offset="0" stop-color="#93d6ff"/><stop offset=".29" stop-color="#8bcbfe"/><stop offset=".78" stop-color="#79b0fc"/><stop offset="1" stop-color="#6fa2fb"/></linearGradient><linearGradient id="linear-gradient-2" x1="43.57" y1="112.29" x2="74.67" y2="112.29" gradientUnits="userSpaceOnUse"><stop offset="0" stop-color="#ff9fd1"/><stop offset=".99" stop-color="#840672"/></linearGradient><linearGradient id="linear-gradient-3" x1="33.94" y1="84.48" x2="88.5" y2="84.48" gradientUnits="userSpaceOnUse"><stop offset="0" stop-color="#d825d8"/><stop offset=".29" stop-color="#e736cd"/><stop offset=".71" stop-color="#f849c2"/><stop offset="1" stop-color="#ff51be"/></linearGradient><linearGradient id="linear-gradient-4" x1="64.79" y1="53.68" x2="60.55" y2="100.73" xlink:href="#linear-gradient-2"/><linearGradient id="linear-gradient-5" x1="61.49" y1="90.28" x2="59.61" y2="111.09" xlink:href="#linear-gradient-2"/><linearGradient id="linear-gradient-6" x1="59.27" y1="95.57" x2="74.59" y2="17.6" gradientUnits="userSpaceOnUse"><stop offset="0" stop-color="#600084"/><stop offset="1" stop-color="#fef6f6"/></linearGradient><linearGradient id="linear-gradient-7" x1="58.33" y1="90.96" x2="68.71" y2="38.15" xlink:href="#linear-gradient-6"/><linearGradient id="linear-gradient-8" x1="58.49" y1="82.64" x2="65.47" y2="47.07" xlink:href="#linear-gradient-6"/><linearGradient id="linear-gradient-9" x1="58.41" y1="79.07" x2="66.6" y2="37.39" xlink:href="#linear-gradient-6"/><linearGradient id="linear-gradient-10" x1="61.47" y1="102.18" x2="70.25" y2="57.45" xlink:href="#linear-gradient-6"/></defs><g class="cls-17"><g id="Laag_1"><polygon class="cls-7" points="109.5 40.6 109.41 40.6 109.41 40.56 61.03 18.5 10.5 40.56 10.5 97.49 59.87 120 109.41 97.41 109.41 40.64 109.5 40.6"/><g class="cls-18"><path class="cls-2" d="M78.54,116.8c.3,1.23-11.35,2.66-17.48,2.71-4.64-.04-12.46-.87-15.84-1.81-1.08-.3-1.71-.61-1.63-.91.92-4.15,10.35-7.53,10.35-7.53l7.1-2.38h.04s.04,0,.04,0l7.1,2.38s3.53,1.26,6.48,3.2c1.87,1.23,3.52,2.72,3.87,4.33Z"/><path class="cls-15" d="M74.67,112.46c-8.29-.89-23.82-1.52-29.46,5.24-1.08-.3-1.71-.61-1.63-.91.92-4.15,10.35-7.53,10.35-7.53l7.1-2.38h.04s.04,0,.04,0l7.1,2.38s3.53,1.26,6.48,3.2Z"/><path class="cls-13" d="M86.58,97.78c-.8,1.12-1.82,2.33-3.04,3.53-5.04,5-13.36,10.04-22.32,9.75-7.48.24-14.51-3.23-19.56-7.29-1.54-1.23-2.89-2.52-4.02-3.78-2.47-2.76-3.86-5.35-3.7-6.85.04-1.17.24-2.43.55-3.76.19-.82.43-1.65.7-2.51.61-1.91,1.41-3.91,2.33-5.93.35-.76.71-1.52,1.08-2.28,1.18-2.39,2.48-4.77,3.79-7.01.44-.75.87-1.49,1.31-2.2,1.22-2.01,2.41-3.87,3.47-5.48.51-.78.99-1.49,1.43-2.14,1.67-2.45,2.78-3.95,2.78-3.95h19.66s1.31,1.76,3.21,4.58c.39.58.81,1.21,1.25,1.88.8,1.23,1.68,2.6,2.58,4.05.36.59.73,1.19,1.1,1.81,1.18,1.97,2.37,4.06,3.48,6.19.32.61.64,1.23.94,1.84,1.04,2.07,1.98,4.16,2.76,6.18.25.66.49,1.32.7,1.96.64,1.91,1.1,3.74,1.3,5.41.06.47.1.93.12,1.38.12,1.09-.58,2.75-1.91,4.63Z"/><path class="cls-12" d="M61.1,106.86v.03h-.04s.04-.03.04-.03Z"/><path class="cls-12" d="M61.06,106.87h-.04s.04,0,.04,0Z"/><path class="cls-11" d="M88.47,93.79c-.65,5-13.15,17.73-27.25,17.27-14.74.47-27.74-13.48-27.27-17.91.06-1.61.4-3.38.95-5.27,3.64-12.65,16.49-30,16.49-30h4.6c-3.26,7.27-10.19,25.26-3.56,33.83,5.94,7.69,25.89,6.46,35.95.07.06.47.1.93.12,1.38.02.19.01.41-.02.64Z"/><path class="cls-4" d="M88.47,93.79c-.65,5-13.15,17.73-27.25,17.27-14.74.47-27.74-13.48-27.27-17.91.06-1.61.4-3.38.95-5.27,6.38,9.6,20.89,18.92,53.57,5.91Z"/><path class="cls-16" d="M66.3,60.07c8.13-.44,14.06,14.1,14.65,15.56,1.68,4.13,3.21,7.87,1.56,10.63-3.7,6.16-22.84,6.65-27.75-3.11-4.35-8.64,3.77-22.66,11.54-23.08Z"/><path class="cls-1" d="M69.93,63.83c1.22-.83,8.37,4.51,8.56,11.54.01.52.1,3.77-.91,4.02-2.29.58-9.35-14.41-7.65-15.56Z"/><ellipse class="cls-8" cx="61.22" cy="57.88" rx="9.83" ry="1.03"/><path class="cls-5" d="M87.07,86.37c-7.35,4.39-15.66,7.06-24.22,7.86-9.46.88-19.87-.21-28.35-4.83.19-.82.43-1.65.7-2.51,8.3,4.85,18.94,5.94,28.34,5,8.06-.81,15.9-3.33,22.83-7.47.25.66.49,1.32.7,1.96Z"/><path class="cls-3" d="M83.61,78.22c-5.18,2.56-10.88,4.17-16.56,5.08-9.86,1.59-20.11,1.01-29.52-2.35.35-.76.71-1.52,1.08-2.28,8.89,3.19,18.55,3.85,27.91,2.44,5.5-.83,11.08-2.3,16.15-4.73.32.61.64,1.23.94,1.84Z"/><path class="cls-10" d="M79.18,70.19c-2.41,1.09-4.92,1.97-7.5,2.63-9.65,2.47-19.81,1.7-29.29-1.16.44-.75.87-1.49,1.31-2.2,8.73,2.61,18.02,3.38,26.97,1.34,2.53-.58,5.02-1.38,7.41-2.41.36.59.73,1.19,1.1,1.81Z"/><path class="cls-14" d="M75.5,64.33c-3.5,1.16-7.19,1.8-10.9,1.97-5.67.25-11.83-.43-17.43-2.33.51-.78.99-1.49,1.43-2.14,5.15,1.69,10.8,2.3,15.98,2.15,3.29-.09,6.55-.6,9.67-1.52.39.58.81,1.21,1.25,1.88Z"/><path class="cls-6" d="M86.58,97.78c-.8,1.12-1.82,2.33-3.04,3.53-7.42,2.63-15.31,3.81-23.25,4.01-6.19.16-12.58-.12-18.63-1.55-1.54-1.23-2.89-2.52-4.02-3.78,3.86,1.43,7.96,2.23,12.07,2.64,6.79.66,13.78.54,20.54-.37,5.67-.77,11.16-2.26,16.32-4.49Z"/></g></g></g></svg>