<?xml version="1.0" encoding="UTF-8"?><svg id="Laag_1" xmlns="http://www.w3.org/2000/svg" viewBox="0 0 120 120"><defs><style>.cls-1{fill:#f9c291;}.cls-1,.cls-2,.cls-3,.cls-4,.cls-5,.cls-6,.cls-7,.cls-8,.cls-9{stroke-width:0px;}.cls-2{fill:#e2ad81;}.cls-3{fill:#fccca4;}.cls-4{fill:#ff8700;}.cls-5{fill:none;}.cls-6{fill:#4f2c0c;}.cls-7{fill:#231f20;}.cls-8{fill:#3d291f;}.cls-9{fill:#633815;}</style></defs><polygon class="cls-4" points="109.5 43.65 109.41 43.65 109.41 43.61 61.03 22.4 10.5 43.61 10.5 98.36 59.87 120 109.41 98.28 109.41 43.69 109.5 43.65"/><circle class="cls-5" cx="82.17" cy="49.99" r="14.67" transform="translate(24.33 126.84) rotate(-84.35)"/><circle class="cls-5" cx="38.36" cy="49.99" r="14.67" transform="translate(-8.09 7.41) rotate(-9.99)"/><path class="cls-9" d="M82.56,88.33c-.46.05-.93.09-1.41.11.48-.02.95-.06,1.41-.11Z"/><path class="cls-9" d="M79.66,88.45c-.51-.02-1.03-.05-1.56-.11.53.06,1.05.09,1.56.11Z"/><path class="cls-9" d="M86.92,87.27c-.37.14-.76.27-1.16.39.4-.12.78-.25,1.16-.39Z"/><path class="cls-9" d="M75.62,87.95c-.57-.12-1.15-.26-1.75-.43.6.17,1.18.31,1.75.43Z"/><path class="cls-9" d="M85.77,87.67c-.4.12-.81.23-1.23.32.42-.1.83-.2,1.23-.32Z"/><path class="cls-9" d="M69.16,85.77c-.66-.3-1.33-.63-2.02-1,.69.36,1.36.69,2.02,1Z"/><path class="cls-9" d="M40.07,88.44c-.48-.02-.95-.06-1.41-.11.46.05.93.09,1.41.11Z"/><path class="cls-9" d="M47.35,87.52c-.6.17-1.18.31-1.75.43.57-.12,1.15-.26,1.75-.43Z"/><path class="cls-9" d="M36.68,87.99c-.42-.1-.83-.2-1.23-.32.4.12.81.23,1.23.32Z"/><path class="cls-9" d="M43.12,88.34c-.53.06-1.05.09-1.56.11.51-.02,1.03-.05,1.56-.11Z"/><path class="cls-9" d="M35.45,87.67c-.4-.12-.78-.25-1.16-.39.37.14.76.27,1.16.39Z"/><path class="cls-9" d="M73.87,87.52c-.6-.17-1.2-.36-1.83-.58.62.22,1.23.41,1.83.58Z"/><path class="cls-9" d="M54.08,84.77c2.06-1.09,4.23-2.45,6.53-4.13,2.3,1.68,4.47,3.04,6.53,4.13-2.06-1.09-4.23-2.45-6.53-4.13-2.3,1.68-4.47,3.04-6.53,4.13Z"/><path class="cls-9" d="M72.28,73.58l-.39-.19c-.54.15-1.45.25-2.51.27,1.09.98,2.5,2.18,4.04,3.19.4.27.82.52,1.23.76.21.12.42.23.62.34.21.11.41.21.62.31.21.1.41.19.61.28.2.09.4.17.59.25.39.15.76.3,1.11.42.17.06.34.11.51.16.16.05.32.1.46.14.3.07.55.15.77.2.43.1.69.17.69.17,0,0-.25.05-.7.12-.23.03-.5.04-.82.06-.32,0-.68,0-1.07-.04-.39-.03-.82-.1-1.26-.19-.22-.06-.45-.11-.68-.17-.23-.07-.46-.14-.69-.22-.46-.17-.94-.37-1.4-.61-.46-.23-.92-.5-1.36-.79-.88-.58-1.69-1.26-2.37-1.96-.69-.7-1.26-1.41-1.69-2.06-.09-.12-.16-.24-.24-.36-.81-.02-1.52-.09-2.03-.19l-1.29.91c-.4.29-.84.53-1.29.73.31.28.69.6,1.12.97.45.37.96.77,1.53,1.19.28.22.59.42.9.64.31.22.64.43.98.65.33.22.69.43,1.05.64.36.22.74.42,1.12.62.19.1.38.21.58.3.2.09.4.19.6.28.2.09.4.19.61.28.21.08.42.17.63.25.21.08.42.17.63.25l.64.21.64.21c.21.07.46.12.69.18l.7.18.17.04.09.02h0s.04,0,.04,0l.34.06c.45.06.89.18,1.34.21.22.02.45.04.67.06.22.02.44.06.66.05.44,0,.88.03,1.3.02.43-.03.85-.03,1.26-.07.41-.06.82-.08,1.2-.16.39-.08.77-.13,1.13-.23.36-.09.72-.16,1.05-.28.17-.05.33-.1.49-.15.16-.06.31-.11.46-.17.15-.05.3-.11.44-.16.14-.06.28-.12.41-.17.53-.22.98-.45,1.35-.64.37-.2.65-.36.84-.48.19-.12.29-.19.29-.19,0,0-.29.39-.93.96-.32.28-.72.62-1.23.95-.13.08-.25.17-.39.26-.14.08-.28.17-.42.25-.29.18-.61.33-.95.49-.67.33-1.43.62-2.26.86-.2.07-.42.12-.63.16-.22.05-.44.09-.66.14-.44.1-.91.13-1.37.2-.47.06-.95.05-1.43.07-.49.01-.97-.04-1.47-.06-.25,0-.49-.05-.74-.08-.25-.04-.49-.07-.74-.11l-.37-.06h-.05s-.01,0-.01,0h-.05s-.02-.02-.02-.02l-.09-.02-.17-.04-.7-.17c-.24-.06-.46-.1-.7-.19l-.73-.24c-.24-.08-.48-.16-.72-.25-.23-.1-.45-.2-.68-.29-.23-.1-.45-.2-.67-.29-.22-.11-.43-.23-.64-.34-.21-.11-.42-.23-.63-.34-.21-.11-.4-.25-.6-.37-.39-.25-.79-.48-1.14-.76-.36-.26-.72-.51-1.04-.79-.66-.53-1.25-1.08-1.76-1.6-1.04-1.04-1.78-2.02-2.26-2.72-.02-.03-.03-.05-.05-.07-.17.07-.35.13-.53.19-1.46.45-3.02.45-4.48,0-.18-.05-.35-.12-.53-.19-.02.02-.03.05-.05.07-.48.7-1.23,1.68-2.26,2.72-.52.52-1.1,1.07-1.76,1.6-.32.28-.68.53-1.04.79-.35.27-.75.51-1.14.76-.2.12-.39.26-.6.37-.21.11-.42.22-.63.34-.21.11-.42.23-.64.34-.22.1-.45.2-.67.29-.23.1-.45.2-.68.29-.24.09-.48.17-.72.25l-.73.24c-.24.08-.47.13-.7.19l-.7.17-.17.04-.09.02h-.02s-.05.02-.05.02h-.01s-.05,0-.05,0l-.37.06c-.25.04-.49.07-.74.11-.25.04-.49.07-.74.08-.5.02-.98.07-1.47.06-.49-.02-.97-.01-1.43-.07-.47-.07-.93-.1-1.37-.2-.22-.05-.44-.1-.66-.14-.22-.04-.43-.09-.63-.16-.83-.24-1.59-.53-2.26-.86-.34-.16-.66-.31-.95-.49-.15-.09-.29-.17-.42-.25-.13-.09-.26-.18-.39-.26-.5-.33-.9-.67-1.23-.95-.64-.57-.93-.96-.93-.96,0,0,.1.07.29.19.19.12.48.28.84.48.37.2.82.42,1.35.64.13.06.27.11.41.17.14.05.29.1.44.16.15.05.3.11.46.17.16.05.32.1.49.15.33.11.69.19,1.05.28.36.1.74.15,1.13.23.39.08.79.1,1.2.16.41.05.83.05,1.26.07.43.02.86-.02,1.3-.02.22,0,.44-.03.66-.05.22-.02.44-.04.67-.06.45-.03.89-.15,1.34-.21l.34-.06h.04s0,0,0,0h0l.09-.02.17-.04.7-.18c.23-.06.48-.1.69-.18l.64-.21.64-.21c.21-.08.42-.17.63-.25.21-.08.42-.17.63-.25.21-.09.41-.19.61-.28.2-.09.4-.19.6-.28.2-.09.39-.2.58-.3.39-.2.76-.4,1.12-.62.36-.21.72-.42,1.05-.64.34-.22.67-.43.98-.65.31-.22.62-.42.9-.64.57-.42,1.08-.83,1.53-1.19.44-.37.82-.69,1.12-.97-.45-.2-.88-.44-1.29-.73l-1.27-.9c-.53.1-1.24.16-2.05.18-.08.12-.15.24-.24.36-.43.65-1,1.36-1.69,2.06-.68.7-1.49,1.38-2.37,1.96-.44.29-.9.56-1.36.79-.46.24-.94.43-1.4.61-.23.08-.47.16-.69.22-.23.06-.46.12-.68.17-.44.09-.87.16-1.26.19-.39.05-.75.04-1.07.04-.32-.01-.59-.03-.82-.06-.45-.06-.7-.12-.7-.12,0,0,.25-.07.69-.17.22-.05.47-.13.77-.2.15-.05.3-.09.46-.14.16-.05.33-.1.51-.16.35-.11.72-.26,1.11-.42.19-.08.39-.17.59-.25.2-.09.4-.19.61-.28.2-.1.41-.21.62-.31.2-.12.41-.22.62-.34.41-.24.83-.49,1.23-.76,1.54-1,2.95-2.21,4.04-3.19-1.07-.03-1.97-.14-2.48-.29l-.43.2c-.86.41-1.83.47-2.72.2-1.13.87-2.18,1.64-3.14,2.32-2.25,1.58-5.04,2.3-7.74,1.8-4.18-.77-6.82-4.08-9.5-7.83.93,5.36,2.53,6.88,3.86,8.59-.64-.1-1.32-.22-2.05-.33,0,0,10.13,17.31,32.96.59,22.82,16.72,32.96-.59,32.96-.59-.72.12-1.4.23-2.04.33,1.48-1.92,3.09-5.55,3.86-8.59-2.68,3.75-5.32,7.06-9.5,7.83-2.71.5-5.49-.22-7.74-1.8-.97-.68-2.01-1.45-3.14-2.32-.9.27-1.87.21-2.72-.2Z"/><path class="cls-9" d="M71.1,86.59c-.63-.25-1.28-.52-1.94-.82.66.3,1.31.58,1.94.82Z"/><path class="cls-9" d="M54.08,84.77c-.69.36-1.36.69-2.02,1,.66-.3,1.33-.63,2.02-1Z"/><path class="cls-9" d="M52.06,85.77c-.66.3-1.31.58-1.94.82.63-.25,1.28-.52,1.94-.82Z"/><path class="cls-9" d="M49.18,86.94c-.62.22-1.23.41-1.83.58.6-.17,1.2-.36,1.83-.58Z"/><path class="cls-6" d="M93.57,78.33s-10.13,17.31-32.96.59c-22.82,16.72-32.96-.59-32.96-.59.72.12,1.4.23,2.05.33-1.33-1.71-2.94-3.23-3.86-8.59,0,0-.79,5.26,1.61,10.3-.69-.11-1.42-.23-2.19-.36,0,0,2.89,4.94,9.05,7.26.37.14.76.27,1.16.39s.81.23,1.23.32c.63.14,1.29.26,1.98.34.46.05.93.09,1.41.11s.98.02,1.49,0,1.03-.05,1.56-.11c.8-.08,1.63-.21,2.48-.39.57-.12,1.15-.26,1.75-.43.6-.17,1.2-.36,1.83-.58.31-.11.62-.23.94-.35.63-.25,1.28-.52,1.94-.82.66-.3,1.33-.63,2.02-1,2.06-1.09,4.23-2.45,6.53-4.13,2.3,1.68,4.47,3.04,6.53,4.13.69.36,1.36.69,2.02,1,.66.3,1.31.58,1.94.82.32.12.63.24.94.35.62.22,1.23.41,1.83.58.6.17,1.18.31,1.75.43.86.18,1.68.31,2.48.39.53.06,1.05.09,1.56.11.51.02,1,.01,1.49,0s.95-.06,1.41-.11c.69-.08,1.35-.19,1.98-.34.42-.1.83-.2,1.23-.32s.78-.25,1.16-.39c6.16-2.32,9.05-7.26,9.05-7.26-.78.13-1.5.25-2.19.36,2.4-5.05,1.61-10.3,1.61-10.3-.78,3.04-2.38,6.67-3.86,8.59.64-.1,1.32-.22,2.04-.33Z"/><path class="cls-6" d="M54.85,77.26c-.28.22-.59.42-.9.64-.31.22-.64.43-.98.65-.33.22-.69.43-1.05.64-.36.22-.74.42-1.12.62-.19.1-.38.21-.58.3-.2.09-.4.19-.6.28-.2.09-.4.19-.61.28-.21.08-.42.17-.63.25-.21.08-.42.17-.63.25l-.64.21-.64.21c-.21.07-.46.12-.69.18l-.7.18-.17.04-.09.02h0s-.04,0-.04,0l-.34.06c-.45.06-.89.18-1.34.21-.22.02-.45.04-.67.06-.22.02-.44.06-.66.05-.44,0-.88.03-1.3.02-.43-.03-.85-.03-1.26-.07-.41-.06-.82-.08-1.2-.16-.39-.08-.77-.13-1.13-.23-.36-.09-.72-.16-1.05-.28-.17-.05-.33-.1-.49-.15-.16-.06-.31-.11-.46-.17-.15-.05-.3-.11-.44-.16-.14-.06-.28-.12-.41-.17-.53-.22-.98-.45-1.35-.64-.37-.2-.65-.36-.84-.48-.19-.12-.29-.19-.29-.19,0,0,.29.39.93.96.32.28.72.62,1.23.95.13.08.25.17.39.26.14.08.28.17.42.25.29.18.61.33.95.49.67.33,1.43.62,2.26.86.2.07.42.12.63.16.22.05.44.09.66.14.44.1.91.13,1.37.2.47.06.95.05,1.43.07.49.01.98-.04,1.47-.06.25,0,.49-.05.74-.08.25-.04.49-.07.74-.11l.37-.06h.05s.01,0,.01,0h.05s.02-.02.02-.02l.09-.02.17-.04.7-.17c.24-.06.46-.1.7-.19l.73-.24c.24-.08.48-.16.72-.25.23-.1.45-.2.68-.29.23-.1.45-.2.67-.29.22-.11.43-.23.64-.34.21-.11.42-.23.63-.34.21-.11.4-.25.6-.37.39-.25.79-.48,1.14-.76.36-.26.72-.51,1.04-.79.66-.53,1.25-1.08,1.76-1.6,1.04-1.04,1.78-2.02,2.26-2.72.02-.03.03-.05.05-.07-.11-.04-.22-.1-.33-.14-.31.28-.69.6-1.12.97-.45.37-.96.77-1.53,1.19Z"/><path class="cls-6" d="M51.85,73.66c-1.09.98-2.5,2.18-4.04,3.19-.4.27-.82.52-1.23.76-.21.12-.42.23-.62.34-.21.11-.41.21-.62.31-.21.1-.41.19-.61.28-.2.09-.4.17-.59.25-.39.15-.76.3-1.11.42-.17.06-.34.11-.51.16-.16.05-.32.1-.46.14-.3.07-.55.15-.77.2-.43.1-.69.17-.69.17,0,0,.25.05.7.12.23.03.5.04.82.06.32,0,.68,0,1.07-.04.39-.03.82-.1,1.26-.19.22-.06.45-.11.68-.17.23-.07.46-.14.69-.22.46-.17.94-.37,1.4-.61.46-.23.92-.5,1.36-.79.88-.58,1.69-1.26,2.37-1.96.69-.7,1.26-1.41,1.69-2.06.09-.12.16-.24.24-.36-.17,0-.34,0-.52,0s-.36,0-.53,0Z"/><path class="cls-6" d="M65.69,78.04c.52.52,1.1,1.07,1.76,1.6.32.28.68.53,1.04.79.35.27.75.51,1.14.76.2.12.39.26.6.37.21.11.42.22.63.34.21.11.42.23.64.34.22.1.45.2.67.29.23.1.45.2.68.29.24.09.48.17.72.25l.73.24c.24.08.47.13.7.19l.7.17.17.04.09.02h.02s.05.02.05.02h.01s.05,0,.05,0l.37.06c.25.04.49.07.74.11.25.04.49.07.74.08.5.02.98.07,1.47.06.49-.02.97-.01,1.43-.07.47-.07.93-.1,1.37-.2.22-.05.44-.1.66-.14.22-.04.43-.09.63-.16.83-.24,1.59-.53,2.26-.86.34-.16.66-.31.95-.49.15-.09.29-.17.42-.25.13-.09.26-.18.39-.26.5-.33.9-.67,1.23-.95.64-.57.93-.96.93-.96,0,0-.1.07-.29.19-.19.12-.48.28-.84.48-.37.2-.82.42-1.35.64-.13.06-.27.11-.41.17-.14.05-.29.1-.44.16-.15.05-.3.11-.46.17-.16.05-.32.1-.49.15-.33.11-.69.19-1.05.28-.36.1-.74.15-1.13.23-.39.08-.79.1-1.2.16-.41.05-.83.05-1.26.07-.43.02-.86-.02-1.3-.02-.22,0-.44-.03-.66-.05-.22-.02-.44-.04-.67-.06-.45-.03-.89-.15-1.34-.21l-.34-.06h-.04s0,0,0,0h0l-.09-.02-.17-.04-.7-.18c-.23-.06-.48-.1-.69-.18l-.64-.21-.64-.21c-.21-.08-.42-.17-.63-.25-.21-.08-.42-.17-.63-.25-.21-.09-.41-.19-.61-.28-.2-.09-.4-.19-.6-.28-.2-.09-.39-.2-.58-.3-.39-.2-.76-.4-1.12-.62-.36-.21-.72-.42-1.05-.64-.34-.22-.67-.43-.98-.65-.31-.22-.62-.42-.9-.64-.57-.42-1.08-.83-1.53-1.19-.44-.37-.82-.69-1.12-.97-.11.05-.22.1-.33.14.02.02.03.05.05.07.48.7,1.23,1.68,2.26,2.72Z"/><path class="cls-6" d="M68.32,73.66c.08.12.15.24.24.36.43.65,1,1.36,1.69,2.06.68.7,1.49,1.38,2.37,1.96.44.29.9.56,1.36.79.46.24.94.43,1.4.61.23.08.47.16.69.22.23.06.46.12.68.17.44.09.87.16,1.26.19.39.05.75.04,1.07.04.32-.01.59-.03.82-.06.45-.06.7-.12.7-.12,0,0-.25-.07-.69-.17-.22-.05-.47-.13-.77-.2-.15-.05-.3-.09-.46-.14-.16-.05-.33-.1-.51-.16-.35-.11-.72-.26-1.11-.42-.19-.08-.39-.17-.59-.25-.2-.09-.4-.19-.61-.28-.2-.1-.41-.21-.62-.31-.2-.12-.41-.22-.62-.34-.41-.24-.83-.49-1.23-.76-1.54-1-2.94-2.21-4.04-3.19-.15,0-.29,0-.45,0-.21,0-.41,0-.6-.01Z"/><path class="cls-8" d="M52.38,73.67c.18,0,.35,0,.52,0,.81-.02,1.52-.09,2.05-.18l-.04-.03c-1.01-1.13-2.64-1.46-4.01-.81l-1.53.73c.52.15,1.41.26,2.48.29.17,0,.35,0,.53,0Z"/><path class="cls-8" d="M68.92,73.67c.15,0,.3,0,.45,0,1.07-.02,1.98-.13,2.51-.27l-1.57-.74c-1.37-.65-3-.32-4.01.81h-.02c.51.11,1.22.18,2.03.21.2,0,.4.01.6.01Z"/><path class="cls-1" d="M69.51,65.73c-1.1-.83-2-3.14-2.73-5.98-1.8-2.83-2.85-6.17-2.85-9.77,0-.37.01-.74.04-1.11-.25-.23-.51-.43-.78-.6,1.35,7.95,2.25,19.43,2.25,21.15,0,2.67-2.16,4.83-4.83,4.83s-4.83-2.16-4.83-4.83c0-1.75.93-13.59,2.32-21.55-.55.24-1.07.57-1.54,1,.02.37.04.74.04,1.11,0,2.67-.58,5.21-1.62,7.5-.81,3.83-1.88,7.21-3.26,8.25,0,0-2.15-.56-4.58.23-.57.31-1.15.6-1.75.85-.99.59-1.66,1.6-1.81,2.74v.11c-.23,1.67.68,3.29,2.23,3.96.13.06.26.1.4.14.9.27,1.87.21,2.72-.2l.43-.2,1.53-.73c1.37-.65,3-.32,4.01.81l.04.03,1.27.9c.4.29.84.53,1.29.73.11.05.22.1.33.14.17.07.35.13.53.19,1.46.45,3.02.45,4.48,0,.18-.05.35-.12.53-.19.11-.04.22-.1.33-.14.45-.2.88-.44,1.29-.73l1.29-.91h.02c1.01-1.14,2.64-1.47,4.01-.82l1.57.74.39.19c.86.41,1.83.47,2.72.2.13-.04.27-.09.4-.14,1.55-.67,2.47-2.29,2.25-3.96v-.11c-.13-.87-.54-1.66-1.16-2.24-1.28-.42-2.49-.98-3.63-1.65-1.88-.31-3.35.07-3.35.07Z"/><path class="cls-3" d="M55.78,69.42c0,2.67,2.16,4.83,4.83,4.83s4.83-2.16,4.83-4.83c0-1.72-.9-13.2-2.25-21.15-1.53-.97-3.45-1.1-5.09-.4-1.39,7.96-2.32,19.8-2.32,21.55Z"/><path class="cls-2" d="M69.51,65.73s1.47-.39,3.35-.07c-2.46-1.47-4.55-3.5-6.08-5.91.73,2.84,1.63,5.15,2.73,5.98Z"/><path class="cls-2" d="M51.73,65.73c1.38-1.04,2.45-4.43,3.26-8.25-1.63,3.6-4.4,6.59-7.84,8.49,2.43-.8,4.58-.23,4.58-.23Z"/><path class="cls-7" d="M101.3,45.51h-1.43c-2-7.9-9.17-13.77-17.69-13.77s-16.02,6.14-17.82,14.32c-2.51-1.51-5.68-1.51-8.19,0-1.8-8.18-9.1-14.32-17.82-14.32s-15.69,5.87-17.69,13.77h-1.43c-1.22,0-2.2.99-2.2,2.2v4.54c0,1.22.99,2.2,2.2,2.2h1.43c2,7.9,9.17,13.77,17.69,13.77,2.49,0,4.87-.5,7.03-1.41.6-.25,1.19-.54,1.75-.85,3.44-1.9,6.21-4.88,7.84-8.49,1.04-2.29,1.62-4.82,1.62-7.5,0-.37-.01-.74-.04-1.11.46-.43.98-.76,1.54-1,1.64-.71,3.55-.57,5.09.4.27.17.54.38.78.6-.02.37-.04.74-.04,1.11,0,3.59,1.05,6.94,2.85,9.77,1.54,2.41,3.62,4.44,6.08,5.91,1.14.68,2.35,1.23,3.63,1.65,1.79.59,3.7.91,5.69.91,8.52,0,15.69-5.87,17.69-13.77h1.43c1.22,0,2.2-.99,2.2-2.2v-4.54c0-1.22-.99-2.2-2.2-2.2ZM23.68,49.99c0-8.09,6.58-14.67,14.67-14.67s14.67,6.58,14.67,14.67-6.58,14.67-14.67,14.67-14.67-6.58-14.67-14.67ZM82.17,64.66c-8.09,0-14.67-6.58-14.67-14.67s6.58-14.67,14.67-14.67,14.67,6.58,14.67,14.67-6.58,14.67-14.67,14.67Z"/></svg>