<?xml version="1.0" encoding="UTF-8"?><svg id="Laag_1" xmlns="http://www.w3.org/2000/svg" xmlns:xlink="http://www.w3.org/1999/xlink" viewBox="0 0 120 120"><defs><style>.cls-1,.cls-2,.cls-3,.cls-4{stroke-width:0px;}.cls-2{fill:#ff8700;}.cls-3{fill:none;}.cls-5{clip-path:url(#clippath);}.cls-4{fill:#dd7c52;}</style><clipPath id="clippath"><rect class="cls-3" x="27.79" y="32.01" width="70.42" height="64.09"/></clipPath></defs><g id="Group_69"><g id="Group_68"><ellipse id="Ellipse_13" class="cls-2" cx="60" cy="81.57" rx="38.13" ry="60.18" transform="translate(-27.26 132.94) rotate(-84.15)"/></g></g><g class="cls-5"><g id="Group_31"><path id="Path_23" class="cls-4" d="M37.38,63.59l.79,2.34,1.37-2.47h.1c0-.06,0-.12.03-.18l.84-2.89-3.13,3.2Z"/><path id="Path_24" class="cls-4" d="M36.29,62.72l7.1-7.26-2.14,7.33,24.58-.06,30.09-29.32h-36.45l-29.32,29.32h6.13Z"/><path id="Path_25" class="cls-4" d="M92.08,68.34l4.65-4.6.08-29.27-30.07,29.3v29.95l19.13-19.13c.6-2.75,3.5-6.06,6.2-6.25"/><path id="Path_26" class="cls-1" d="M58.91,32.01l-31.12,31.12v32.98h38.55l.2-.2h0l20.63-20.63.04-.22c.44-2.53,3.19-5.36,5.16-5.34h.29l5.46-5.41.09-31.5v-.81h-39.3ZM65.24,94.71H29.18v-30.6h6.91l1.77,5.24,2.88-5.18,24.62-.06v30.7l-.12-.11ZM39.66,63.28c-.02.06-.02.12-.02.18h-.1l-1.37,2.47-.79-2.34,3.12-3.2-.84,2.89ZM95.93,33.4l-30.1,29.32-24.58.06,2.14-7.33-7.1,7.26h-6.13l29.32-29.32h36.45ZM66.75,93.73v-29.96l30.07-29.3-.08,29.27-4.65,4.6c-2.7.2-5.6,3.5-6.2,6.25l-19.14,19.14Z"/><path id="Path_27" class="cls-4" d="M65.36,64.11l-24.62.06-2.88,5.18-1.77-5.24h-6.91v30.61h36.06l.12.1v-30.71Z"/></g></g></svg>