<?xml version="1.0" encoding="UTF-8"?><svg id="Laag_1" xmlns="http://www.w3.org/2000/svg" xmlns:xlink="http://www.w3.org/1999/xlink" viewBox="0 0 120 120"><defs><style>.cls-1{fill:#ff8700;}.cls-1,.cls-2,.cls-3{stroke-width:0px;}.cls-2{fill:url(#Naamloos_verloop_107);}.cls-3{fill:#1d1d1b;}</style><linearGradient id="Naamloos_verloop_107" x1="23.59" y1="68.06" x2="95.35" y2="68.06" gradientTransform="translate(-1.53 -2.31) rotate(-1.71)" gradientUnits="userSpaceOnUse"><stop offset="0" stop-color="#d6ff83"/><stop offset="1" stop-color="#baffbb"/></linearGradient></defs><g id="Group_69"><g id="Group_68"><ellipse id="Ellipse_13" class="cls-1" cx="60" cy="81.57" rx="38.13" ry="60.18" transform="translate(-27.26 132.94) rotate(-84.15)"/></g></g><path class="cls-2" d="M92.26,59.23c.54-3.41,1.09-6.82,1.63-10.23.03-.18.08-.35.12-.52l-.06-2.05c-.64-1.66-1.96-2.04-3.56-1.99-.04,0-.07,0-.11,0-.23,0-.45.02-.68.02-3.82.11-7.61-.16-11.28-1.39-2.85-.95-5.27-2.57-7.31-4.75-1.55-1.66-3.03-3.38-4.62-5-2.05-2.1-4.63-3.2-7.52-3.57-1.31-.17-2.62-.24-3.92-.2-1.69.05-3.38.28-5.05.68-4.04.98-6.89,3.36-8.34,7.27-.96,2.6-1.77,5.25-2.67,7.87-2.9,8.5-5.8,16.99-8.72,25.49-1.16,3.37-2.36,6.72-3.5,10.1-.3.88-.43,1.81-.63,2.71-.06.93-.05,1.92.01,2.97.03,1.4.79,2.93,1.43,4.33,2.12,4.6,5.8,7.21,10.8,7.86,1.19.16,2.36.22,3.53.18,2.61-.08,5.17-.65,7.61-1.77,3.27-1.5,5.4-3.98,5.9-7.64.42-3.06-.56-5.69-2.67-7.89-2.6-2.71-6.18-4.12-9.81-4.02-1.47.04-2.95.34-4.37.9-2.01.79-3.56,2.12-4.19,4.28-.7,2.43.24,5,2.44,6.54,1.52,1.07,3.2,1.6,5.02,1.55.29,0,.58-.03.87-.07,1.21-.16,2.1-1.21,2.13-2.42.04-1.3-.77-2.4-1.99-2.66-.46-.1-.94-.06-1.39-.17-.55-.14-1.11-.3-1.6-.58-.53-.31-.53-.87.02-1.16.66-.34,1.38-.63,2.11-.76.44-.08.88-.12,1.3-.14,2.32-.07,4.32.86,5.93,2.71,1.67,1.92,1.26,4.61-.82,6.1-1.37.98-2.95,1.41-4.58,1.65-.85.13-1.7.22-2.56.25-1.01.03-2.02-.04-3.03-.26-3.83-.83-6.09-3.76-6.61-7.26-.59-3.96,1.23-6.83,4.36-8.97,2.35-1.61,5.05-2.13,7.86-2.22.07,0,.14,0,.21,0,2.52-.06,4.96.28,7.23,1.45,1.51.77,2.87,1.78,3.92,3.09,1.92,2.38,3.75,4.84,5.61,7.27,1.91,2.5,3.99,4.83,6.6,6.64,2.68,1.86,5.62,3.04,8.81,3.68,2.53.5,5.08.68,7.65.61.03,0,.06,0,.09,0,1.48-.05,2.47-1,2.7-2.45.85-5.46,1.72-10.91,2.58-16.37,1.04-6.56,2.08-13.12,3.12-19.67Z"/><path class="cls-3" d="M96.49,45.45c-.68-1.76-2.3-3.83-6.16-3.72-.05,0-.09,0-.14,0-.22,0-.43.02-.65.02-4.13.12-7.42-.27-10.34-1.25-2.36-.79-4.38-2.11-6.19-4.03-.61-.65-1.22-1.33-1.82-1.98-.91-1.01-1.85-2.05-2.84-3.06-2.36-2.42-5.43-3.89-9.1-4.37-1.45-.19-2.91-.26-4.35-.22h0c-1.87.06-3.75.31-5.6.76-4.97,1.2-8.51,4.3-10.24,8.97-.64,1.72-1.21,3.46-1.76,5.15-.3.92-.61,1.87-.93,2.79-2.58,7.55-5.63,16.49-8.72,25.48-.49,1.41-.99,2.85-1.48,4.25-.67,1.92-1.36,3.9-2.03,5.87-.26.76-.41,1.52-.54,2.19-.06.28-.11.54-.16.79l-.05.22v.22c-.07.97-.07,2.03,0,3.24.05,1.85.85,3.57,1.55,5.08l.13.28c2.49,5.38,6.95,8.63,12.9,9.41,1.34.18,2.67.24,3.96.21,3.03-.09,5.95-.77,8.66-2.02,4.27-1.96,6.84-5.33,7.45-9.73.1-.7.13-1.39.11-2.07.14.18.28.37.42.55,1.69,2.21,4.03,5.02,7.2,7.22,2.89,2,6.19,3.38,9.82,4.11,2.62.52,5.4.74,8.26.66h.09c2.73-.09,4.86-2,5.29-4.74.75-4.82,1.53-9.72,2.28-14.46l.3-1.9c1.04-6.56,2.08-13.12,3.12-19.67.47-2.97.99-6.21,1.63-10.21,0-.04.02-.07.03-.11.02-.07.04-.15.06-.22l.09-.36v-.37s-.07-2.05-.07-2.05v-.46s-.18-.43-.18-.43ZM83.87,97.73s-.06,0-.09,0c-2.57.08-5.13-.1-7.65-.61-3.18-.63-6.13-1.82-8.81-3.68-2.61-1.81-4.68-4.14-6.6-6.64-1.86-2.43-3.69-4.88-5.61-7.27-1.06-1.31-2.41-2.32-3.92-3.09-2.27-1.17-4.71-1.5-7.23-1.45-.07,0-.14,0-.21,0-2.8.08-5.5.6-7.86,2.22-3.13,2.15-4.95,5.01-4.36,8.97.52,3.5,2.78,6.43,6.61,7.26,1.01.22,2.02.29,3.03.26.85-.03,1.7-.12,2.56-.25,1.63-.24,3.21-.67,4.58-1.65,2.09-1.49,2.49-4.18.82-6.1-1.61-1.85-3.61-2.78-5.93-2.71-.42.01-.85.06-1.3.14-.73.13-1.45.42-2.11.76-.55.28-.55.85-.02,1.16.48.28,1.05.45,1.6.58.45.11.94.07,1.39.17,1.22.26,2.03,1.37,1.99,2.66-.04,1.21-.93,2.26-2.13,2.42-.29.04-.58.06-.87.07-1.81.05-3.5-.48-5.02-1.55-2.19-1.54-3.14-4.11-2.44-6.54.62-2.16,2.18-3.49,4.19-4.28,1.42-.56,2.9-.85,4.37-.9,3.63-.11,7.22,1.3,9.81,4.02,2.11,2.21,3.1,4.83,2.67,7.89-.5,3.66-2.63,6.13-5.9,7.64-2.45,1.13-5,1.7-7.61,1.77-1.17.03-2.34-.03-3.53-.18-5-.66-8.67-3.27-10.8-7.86-.65-1.4-1.4-2.93-1.43-4.33-.06-1.04-.07-2.04-.01-2.97.21-.9.34-1.83.63-2.71,1.14-3.38,2.34-6.73,3.5-10.1,2.91-8.49,5.82-16.99,8.72-25.49.9-2.62,1.71-5.27,2.67-7.87,1.45-3.91,4.3-6.3,8.34-7.27,1.67-.4,3.35-.63,5.05-.68,1.3-.04,2.61.03,3.92.2,2.89.38,5.46,1.47,7.52,3.57,1.59,1.62,3.06,3.35,4.62,5,2.04,2.18,4.46,3.8,7.31,4.75,3.67,1.23,7.46,1.5,11.28,1.39.23,0,.45-.01.68-.02.04,0,.07,0,.11,0,1.6-.05,2.91.32,3.56,1.99l.06,2.05c-.04.17-.1.34-.12.52-.55,3.41-1.09,6.82-1.63,10.23-1.04,6.56-2.08,13.12-3.12,19.67-.86,5.46-1.73,10.91-2.58,16.37-.23,1.45-1.22,2.41-2.7,2.45Z"/></svg>