<?xml version="1.0" encoding="UTF-8"?><svg id="Laag_1" xmlns="http://www.w3.org/2000/svg" viewBox="0 0 121 115.5"><defs><style>.cls-1{fill:#ff0080;}.cls-1,.cls-2{stroke:#000;stroke-miterlimit:10;}.cls-3,.cls-4,.cls-5,.cls-6,.cls-7{stroke-width:0px;}.cls-4,.cls-2{fill:#bf0060;}.cls-5{fill:#ff8700;}.cls-8{fill:#fff;font-family:QuestaSans-Bold, 'Questa Sans';font-size:12px;font-weight:700;}.cls-6{fill:#57595a;}.cls-7{fill:#f4a1b1;}</style></defs><rect class="cls-5" x=".5" y="90.5" width="120" height="25" rx="4.96" ry="4.96"/><text class="cls-8" transform="translate(22.37 106.83)"><tspan x="0" y="0">Aantal munten</tspan></text><path class="cls-2" d="M28.04,87.74c0,1.53,1.24,2.76,2.76,2.76h8.44c1.53,0,2.76-1.24,2.76-2.76l.48-6.29c-6.19-2.27-11.73-5.56-16.34-9.63l1.89,15.92Z"/><path class="cls-2" d="M84.36,80.68l.59,7.05c0,1.53,1.24,2.76,2.76,2.76h8.44c1.53,0,2.76-1.24,2.76-2.76l2.23-18.2c-4.58,4.66-10.29,8.48-16.79,11.15Z"/><path class="cls-7" d="M69.68,11.34c-3.02-.45-5.88-.56-8.47-.47h0s0,0,0,0c-.67.02-1.32.06-1.96.11,1.04-.06,2.1-.09,3.18-.09,2.62,0,5.11.17,7.47.49-.05,0-.09-.02-.14-.02-.03,0-.06,0-.1-.01Z"/><path class="cls-1" d="M118.83,23.9c-1.06-.33-2.16.09-2.73,1.03-1.53,2.53-3.69,4-5.72,4.89C104.55,13.06,88.38.5,62.44.5c-10.72,0-19.77,2.15-27.12,5.86C31.13,3.82,22.43-.15,12.94,3.33c-.14.05-.24.18-.26.33-.01.12-.98,9.75,6.05,17.47-2.59,4.05-4.44,8.51-5.52,13.23-.54.02-1.09.09-1.64.24l-7.59,2.07c-2.51.68-4,3.29-3.32,5.8l3.35,12.3c1.02,3.74,3.35,5.19,8.64,4.94h2.57c2.44,5.55,6.18,10.55,10.92,14.73,4.61,4.07,10.15,7.36,16.34,9.63,6.12,2.24,12.86,3.49,19.95,3.49,7.86,0,15.29-1.53,21.92-4.25,6.49-2.67,12.21-6.49,16.79-11.15,7.3-7.43,11.69-16.99,11.69-27.43,0-.64-.02-1.28-.04-1.92,6.02-4.42,7.43-11.96,7.7-16.5.07-1.11-.6-2.08-1.67-2.41Z"/><circle class="cls-3" cx="21.41" cy="31" r="3.04"/><path class="cls-3" d="M61.22,10.87l17.14-1.73-1.28,3.78h0s1.28-3.78,1.28-3.78c-16.35-5.53-30.83-.21-31.44.02l1.36,3.61c3.33-.97,6.99-1.58,10.98-1.8.63-.05,1.29-.08,1.96-.11Z"/><path class="cls-6" d="M69.68,11.34s.06,0,.1.01c-.03,0-.06,0-.1-.01Z"/><path class="cls-4" d="M2.13,43.93c1.47-4.43,6.33-6.83,6.33-6.83-8.49,1.4-6.33,6.83-6.33,6.83Z"/><path class="cls-4" d="M20.22,3.64c-2.78-.51-6.2,1.39-6.2,1.39,0,6.96,3.67,12.78,3.67,12.78-1.77-10.63,2.53-14.17,2.53-14.17Z"/><path class="cls-3" d="M61.22,10.87h0c2.59-.09,5.45.02,8.47.47.03,0,.06,0,.1.01.05,0,.09.02.14.02,2.54.34,4.93.86,7.17,1.54l1.28-3.78-17.14,1.73Z"/><path class="cls-4" d="M77.14,13.01h0c-2.24-.68-4.63-1.2-7.17-1.54-2.36-.32-4.85-.49-7.47-.49-1.08,0-2.14.03-3.18.09-3.99.21-7.65.83-10.98,1.8-16.27,4.72-24.65,17.69-24.65,32.17,0,18.21,17.37,32.98,38.8,32.98s38.8-14.77,38.8-32.98c0-14.34-8.2-27.2-24.17-32.03Z"/></svg>