<?xml version="1.0" encoding="UTF-8"?><svg id="Laag_1" xmlns="http://www.w3.org/2000/svg" xmlns:xlink="http://www.w3.org/1999/xlink" viewBox="0 0 120 120"><defs><style>.cls-1{fill:none;stroke-width:0px;}.cls-2{clip-path:url(#clippath);}</style><clipPath id="clippath"><path class="cls-1" d="M.07,120c.71-1.04,1.4-2.05,2.08-3.05,4.57-6.7,9.14-13.4,13.71-20.1,5.04-7.39,10.08-14.77,15.12-22.16.89-1.3,1.78-2.6,2.66-3.9.09-.14.19-.18.34-.18,2.2,0,4.39,0,6.59,0,8.56,0,17.13-.01,25.69-.01,4.39,0,8.79,0,13.18.01,2.2,0,4.39,0,6.59,0,.15,0,.25.04.34.17,4.48,6.58,8.96,13.15,13.45,19.72,5.44,7.97,10.88,15.95,16.32,23.92,1.22,1.79,2.45,3.59,3.67,5.38.04.06.07.11.12.19H.07Z"/></clipPath></defs><g class="cls-2"><image width="120" height="120" xlink:href="../../afbeeldingen/tapijt-textuur.jpg"/></g></svg>