<?xml version="1.0" encoding="UTF-8"?><svg id="Laag_1" xmlns="http://www.w3.org/2000/svg" viewBox="0 0 90 120"><defs><style>.cls-1,.cls-2,.cls-3,.cls-4,.cls-5,.cls-6,.cls-7,.cls-8{stroke-width:0px;}.cls-2{fill:#ff8700;}.cls-3{fill:#cc9456;}.cls-4{fill:#804829;}.cls-5{fill:#1ca9e0;}.cls-6{fill:#fff;}.cls-7{fill:#e7403a;}.cls-8{fill:#e7e6e9;}</style></defs><g id="Group_69"><g id="Group_68"><ellipse id="Ellipse_13" class="cls-2" cx="45" cy="60" rx="60.32" ry="32.65" transform="translate(-20.04 97.35) rotate(-83)"/></g></g><path class="cls-3" d="M73.78,56.85c-2.7,0-5-1.06-5.84-2.52-.83,1.47-3.14,2.52-5.84,2.52s-5-1.06-5.84-2.52c-.83,1.47-3.14,2.52-5.84,2.52s-5-1.06-5.84-2.52c-.83,1.47-3.14,2.52-5.84,2.52s-5-1.06-5.84-2.52c-.83,1.47-3.14,2.52-5.84,2.52s-5-1.06-5.84-2.52c-.83,1.47-3.14,2.52-5.84,2.52-.27,0-.54-.01-.82-.03v31.51h5.65v-29.37c0-.16.15-.29.33-.29h20.96c.18,0,.33.13.33.29v29.37h32.73v-31.51c-.27.02-.54.03-.81.03ZM70.95,79.4c0,.16-.15.29-.33.29h-25.07c-.18,0-.33-.13-.33-.29v-19.2c0-.16.15-.29.33-.29h25.07c.18,0,.33.13.33.29v4.92s0,14.28,0,14.28Z"/><path class="cls-6" d="M20.91,49.3h0s0-.05.01-.08l7.54-24.64h-7.19l-11.35,24.72h10.98Z"/><polygon class="cls-6" points="44.26 49.3 44.26 24.58 37.04 24.58 33.25 49.3 44.26 49.3"/><path class="cls-6" d="M56.6,49.26s0,.03,0,.04h0s11,0,11,0l-7.57-24.72h-7.21l3.78,24.68Z"/><path class="cls-7" d="M60.72,24.58l7.54,24.64s.01.05.01.08v3.81c0,.81.56,1.59,1.57,2.19,1.05.62,2.45.96,3.94.96.32,0,.64-.02.96-.05.04-.03.09-.04.15-.05,1.24-.15,2.37-.55,3.18-1.12.79-.56,1.22-1.26,1.22-1.96v-3.72l-11.37-24.77h-7.19Z"/><path class="cls-8" d="M9.9,49.36v3.72c0,.71.43,1.4,1.22,1.96.81.57,1.94.97,3.18,1.12h0c.06,0,.11.02.15.05.31.03.63.05.95.05,1.49,0,2.89-.34,3.94-.96,1.01-.6,1.57-1.37,1.57-2.19v-3.81h-10.98l-.03.06Z"/><path class="cls-7" d="M21.58,49.34v3.77c0,.81.56,1.59,1.57,2.19,1.05.62,2.45.96,3.94.96s2.89-.34,3.94-.96c1.01-.6,1.57-1.37,1.57-2.19v-3.81s0-.03,0-.04l3.78-24.68h-7.21l-7.58,24.75Z"/><path class="cls-8" d="M33.25,49.32v3.79c0,.81.56,1.59,1.57,2.19,1.05.62,2.45.96,3.94.96s2.89-.34,3.94-.96c1.01-.6,1.57-1.37,1.57-2.19v-3.81h-11v.02Z"/><path class="cls-7" d="M44.92,53.11c0,.81.56,1.59,1.57,2.19,1.05.62,2.45.96,3.94.96s2.89-.34,3.94-.96c1.01-.6,1.57-1.37,1.57-2.19v-3.79l-3.79-24.74h-7.22v28.53Z"/><path class="cls-8" d="M56.6,53.11c0,.81.56,1.59,1.57,2.19,1.05.62,2.45.96,3.94.96s2.89-.34,3.94-.96c1.01-.6,1.57-1.37,1.57-2.19v-3.77s-.01-.04-.01-.04h-11v3.81Z"/><path class="cls-4" d="M20.91,59.24v36.17h20.29v-36.17h-20.29ZM26.03,81.11h-2.97c-.29,0-.53-.21-.53-.46s.24-.46.53-.46h2.97c.29,0,.53.21.53.46s-.24.46-.53.46ZM38.48,74.78c0,.16-.15.29-.33.29h-14.19c-.18,0-.33-.13-.33-.29v-12.02c0-.16.15-.29.33-.29h14.19c.18,0,.33.13.33.29v12.02Z"/><polygon class="cls-5" points="24.29 63.05 24.29 74.49 37.81 74.49 37.81 63.05 34.36 63.05 24.29 63.05"/><path class="cls-1" d="M38.14,62.47h-14.19c-.18,0-.33.13-.33.29v12.02c0,.16.15.29.33.29h14.19c.18,0,.33-.13.33-.29v-12.02c0-.16-.15-.29-.33-.29ZM37.81,74.49h-13.52v-11.44h10.07s3.45,0,3.45,0v11.44Z"/><path class="cls-1" d="M26.03,80.18h-2.97c-.29,0-.53.21-.53.46s.24.46.53.46h2.97c.29,0,.53-.21.53-.46s-.24-.46-.53-.46Z"/><rect class="cls-5" x="45.88" y="60.49" width="24.4" height="18.62"/><path class="cls-1" d="M70.62,59.9h-25.07c-.18,0-.33.13-.33.29v19.2c0,.16.15.29.33.29h25.07c.18,0,.33-.13.33-.29v-14.28s0-4.92,0-4.92c0-.16-.15-.29-.33-.29ZM70.29,79.11h-24.4v-18.62h24.4v18.62Z"/><path class="cls-1" d="M79.92,49.19l-11.48-25.01c-.05-.11-.17-.18-.31-.18H21.05c-.14,0-.26.07-.31.18l-11.48,25.01s-.02.07-.02.11v3.81c0,1.72,1.95,3.22,4.69,3.62v31.32c-.44.1-.77.45-.77.86v6.19c0,.49.45.89,1.01.89h60.84c.56,0,1.01-.4,1.01-.89v-6.19c0-.42-.33-.76-.77-.86v-31.32c2.73-.41,4.69-1.9,4.69-3.62v-3.81s0-.07-.02-.11ZM79.28,49.36v3.72c0,.71-.43,1.4-1.22,1.96-.81.57-1.94.97-3.18,1.12-.05,0-.1.02-.15.05-.32.03-.64.05-.96.05-1.49,0-2.89-.34-3.94-.96-1.01-.6-1.57-1.37-1.57-2.19v-3.81s0-.05-.01-.08l-7.54-24.64h7.19l11.37,24.77ZM41.86,88.32v-29.37c0-.16-.15-.29-.33-.29h-20.96c-.18,0-.33.13-.33.29v29.37h-5.65v-31.51c.27.02.54.03.82.03,2.7,0,5-1.06,5.84-2.52.83,1.47,3.14,2.52,5.84,2.52s5-1.06,5.84-2.52c.83,1.47,3.14,2.52,5.84,2.52s5-1.06,5.84-2.52c.83,1.47,3.14,2.52,5.84,2.52s5-1.06,5.84-2.52c.83,1.47,3.14,2.52,5.84,2.52s5-1.06,5.84-2.52c.83,1.47,3.14,2.52,5.84,2.52.27,0,.54-.01.81-.03v31.51h-32.73ZM36.36,24.58l-3.78,24.68s0,.03,0,.04v3.81c0,.81-.56,1.59-1.57,2.19-1.05.62-2.45.96-3.94.96s-2.89-.34-3.94-.96c-1.01-.6-1.57-1.37-1.57-2.19v-3.77l7.58-24.75h7.21ZM44.26,24.58v28.53c0,.81-.56,1.59-1.57,2.19-1.05.62-2.45.96-3.94.96s-2.89-.34-3.94-.96c-1.01-.6-1.57-1.37-1.57-2.19v-3.81s3.79-24.72,3.79-24.72h7.22ZM52.15,24.58l3.79,24.74v3.79c0,.81-.56,1.59-1.57,2.19-1.05.62-2.45.96-3.94.96s-2.89-.34-3.94-.96c-1.01-.6-1.57-1.37-1.57-2.19v-28.53h7.22ZM60.03,24.58l7.57,24.72v.04s.01,3.77.01,3.77c0,.81-.56,1.59-1.57,2.19-1.05.62-2.45.96-3.94.96s-2.89-.34-3.94-.96c-1.01-.6-1.57-1.37-1.57-2.19v-3.81h0s0-.03,0-.04l-3.78-24.68h7.21ZM28.46,24.58l-7.54,24.64s-.01.05-.01.08h0v3.81c0,.81-.56,1.59-1.57,2.19-1.05.62-2.45.96-3.94.96-.32,0-.64-.02-.95-.05-.04-.03-.09-.04-.15-.05h0c-1.24-.15-2.37-.55-3.18-1.12-.79-.56-1.22-1.26-1.22-1.96v-3.72l.03-.06,11.35-24.72h7.19ZM20.91,95.42v-36.17h20.29v36.17h-20.29Z"/></svg>